<?xml version="1.0" encoding="utf-8"?>
<!-- Generator: Adobe Illustrator 16.0.0, SVG Export Plug-In . SVG Version: 6.00 Build 0)  -->
<!DOCTYPE svg PUBLIC "-//W3C//DTD SVG 1.1//EN" "http://www.w3.org/Graphics/SVG/1.1/DTD/svg11.dtd">
<svg version="1.1" id="Layer_1" xmlns="http://www.w3.org/2000/svg" xmlns:xlink="http://www.w3.org/1999/xlink" x="0px" y="0px"
	 width="16.219px" height="8.344px" viewBox="0 0 16.219 8.344" enable-background="new 0 0 16.219 8.344" xml:space="preserve">
<path fill-rule="evenodd" clip-rule="evenodd" fill="#FFFFFF" d="M4.375,1.902C4.41,1.786,4.424,1.659,4.48,1.55
	c0.365-0.752,1.283-0.907,1.877-0.313c1.279,1.272,2.552,2.548,3.823,3.824c0.035,0.032,0.057,0.074,0.103,0.137
	c0.049-0.067,0.073-0.105,0.105-0.141c1.275-1.276,2.555-2.555,3.834-3.834c0.337-0.337,0.745-0.457,1.205-0.31
	c0.429,0.141,0.679,0.45,0.77,0.889c0.004,0.024,0.015,0.049,0.021,0.077c0,0.074,0,0.151,0,0.229
	c-0.05,0.369-0.268,0.633-0.521,0.889c-1.455,1.441-2.896,2.889-4.344,4.337c-0.049,0.049-0.095,0.102-0.134,0.158
	C10.771,8.098,9.812,8.101,9.355,7.5C9.31,7.44,9.26,7.381,9.204,7.324C7.771,5.891,6.336,4.45,4.896,3.019
	c-0.257-0.253-0.471-0.52-0.52-0.885C4.375,2.056,4.375,1.979,4.375,1.902z"/>
</svg>
