<?xml version="1.0" encoding="utf-8"?>
<!-- Generator: Adobe Illustrator 16.0.0, SVG Export Plug-In . SVG Version: 6.00 Build 0)  -->
<!DOCTYPE svg PUBLIC "-//W3C//DTD SVG 1.1//EN" "http://www.w3.org/Graphics/SVG/1.1/DTD/svg11.dtd">
<svg version="1.1" id="Layer_1" xmlns="http://www.w3.org/2000/svg" xmlns:xlink="http://www.w3.org/1999/xlink" x="0px" y="0px"
	 width="30px" height="20px" viewBox="0 0 30 20" enable-background="new 0 0 30 20" xml:space="preserve">
<path stroke="#020202" stroke-width="0.45" stroke-miterlimit="10" d="M28.436,8.709c-0.109,0.343-0.374,0.409-0.695,0.409
	c-6.308-0.002-10.617-0.002-16.925-0.002c-0.089,0-0.178,0-0.318,0c0.09,0.097,0.144,0.158,0.2,0.215
	c1.269,1.271,2.537,2.541,3.807,3.811c0.171,0.171,0.274,0.356,0.178,0.604c-0.113,0.286-0.467,0.397-0.718,0.221
	c-0.085-0.06-0.161-0.138-0.235-0.211c-1.534-1.534-3.068-3.066-4.599-4.603c-0.122-0.121-0.22-0.268-0.33-0.402
	c0-0.084,0-0.17,0-0.254c0.11-0.135,0.209-0.28,0.331-0.403c1.56-1.565,3.124-3.126,4.687-4.688
	c0.244-0.244,0.512-0.276,0.729-0.091c0.195,0.166,0.231,0.436,0.08,0.644c-0.062,0.084-0.137,0.161-0.212,0.235
	c-1.238,1.24-2.479,2.479-3.717,3.718c-0.057,0.058-0.111,0.118-0.203,0.216c0.139,0,0.228,0,0.315,0c6.313,0,10.627,0,16.94-0.003
	c0.306,0,0.552,0.074,0.685,0.374C28.436,8.568,28.436,8.639,28.436,8.709z"/>
</svg>
