<?xml version="1.0" encoding="utf-8"?>
<!-- Generator: Adobe Illustrator 16.0.0, SVG Export Plug-In . SVG Version: 6.00 Build 0)  -->
<!DOCTYPE svg PUBLIC "-//W3C//DTD SVG 1.1//EN" "http://www.w3.org/Graphics/SVG/1.1/DTD/svg11.dtd">
<svg version="1.1" id="Layer_1" xmlns="http://www.w3.org/2000/svg" xmlns:xlink="http://www.w3.org/1999/xlink" x="0px" y="0px"
	 width="18px" height="20px" viewBox="0 0 18 20" enable-background="new 0 0 18 20" xml:space="preserve">
<path opacity="0.8" fill="#6E6E6E" d="M1,8.25C0.586,8.25,0.25,8.586,0.25,9S0.586,9.75,1,9.75V8.25z M12.75,1
	c0-0.414-0.336-0.75-0.75-0.75S11.25,0.586,11.25,1H12.75z M11.25,5c0,0.414,0.336,0.75,0.75,0.75S12.75,5.414,12.75,5H11.25z
	 M6.75,1c0-0.414-0.336-0.75-0.75-0.75S5.25,0.586,5.25,1H6.75z M5.25,5c0,0.414,0.336,0.75,0.75,0.75S6.75,5.414,6.75,5H5.25z
	 M17,8.25H1v1.5h16V8.25z M1.75,17V5h-1.5v12H1.75z M3,18.25c-0.69,0-1.25-0.56-1.25-1.25h-1.5c0,1.519,1.231,2.75,2.75,2.75V18.25z
	 M3,2.25C1.481,2.25,0.25,3.481,0.25,5h1.5c0-0.69,0.56-1.25,1.25-1.25V2.25z M17.75,17V9h-1.5v8H17.75z M17.75,9V5h-1.5v4H17.75z
	 M15,19.75c1.52,0,2.75-1.231,2.75-2.75h-1.5c0,0.69-0.56,1.25-1.25,1.25V19.75z M15,3.75c0.69,0,1.25,0.56,1.25,1.25h1.5
	c0-1.519-1.23-2.75-2.75-2.75V3.75z M15,2.25H3v1.5h12V2.25z M15,18.25H3v1.5h12V18.25z M11.25,1v4h1.5V1H11.25z M5.25,1v4h1.5V1
	H5.25z"/>
</svg>
