<?xml version="1.0" encoding="utf-8"?>
<!-- Generator: Adobe Illustrator 16.0.0, SVG Export Plug-In . SVG Version: 6.00 Build 0)  -->
<!DOCTYPE svg PUBLIC "-//W3C//DTD SVG 1.1//EN" "http://www.w3.org/Graphics/SVG/1.1/DTD/svg11.dtd">
<svg version="1.1" id="Layer_1" xmlns="http://www.w3.org/2000/svg" xmlns:xlink="http://www.w3.org/1999/xlink" x="0px" y="0px"
	 width="29px" height="20px" viewBox="0 0 29 20" enable-background="new 0 0 29 20" xml:space="preserve">
<path fill="#4F4F4F" d="M5.5,13.5c-0.552,0-1,0.447-1,1s0.448,1,1,1V13.5z M11.5,15.5c0.552,0,1-0.447,1-1s-0.448-1-1-1V15.5z M4,2
	h21V0H4V2z M25,18H4v2h21V18z M27,4v3h2V4H27z M27,7v9h2V7H27z M2,16V7H0v9H2z M2,7V4H0v3H2z M4,18c-1.104,0-2-0.896-2-2H0
	c0,2.209,1.791,4,4,4V18z M25,20c2.209,0,4-1.791,4-4h-2c0,1.104-0.896,2-2,2V20z M25,2c1.104,0,2,0.896,2,2h2c0-2.209-1.791-4-4-4
	V2z M4,0C1.791,0,0,1.791,0,4h2c0-1.104,0.896-2,2-2V0z M28,6H1v2h27V6z M5.5,15.5h6v-2h-6V15.5z"/>
</svg>
