<?xml version="1.0" encoding="utf-8"?>
<!-- Generator: Adobe Illustrator 16.0.0, SVG Export Plug-In . SVG Version: 6.00 Build 0)  -->
<!DOCTYPE svg PUBLIC "-//W3C//DTD SVG 1.1//EN" "http://www.w3.org/Graphics/SVG/1.1/DTD/svg11.dtd">
<svg version="1.1" id="Layer_1" xmlns="http://www.w3.org/2000/svg" xmlns:xlink="http://www.w3.org/1999/xlink" x="0px" y="0px"
	 width="30.5px" height="30.667px" viewBox="0 0 30.5 30.667" enable-background="new 0 0 30.5 30.667" xml:space="preserve">
<path fill="none" stroke="#0D819B" stroke-width="1.5" d="M21,24.537V2.8c0-0.639-0.712-1.02-1.244-0.666l-2.633,1.755
	c-0.29,0.193-0.672,0.177-0.943-0.041L13.5,1.705c-0.292-0.234-0.707-0.234-0.999,0L9.82,3.849C9.548,4.066,9.167,4.083,8.877,3.889
	L6.244,2.134C5.712,1.78,5,2.161,5,2.8v21.737c0,0.639,0.712,1.02,1.244,0.666l2.633-1.756c0.29-0.193,0.671-0.176,0.943,0.041
	l2.68,2.145c0.292,0.232,0.707,0.232,0.999,0l2.68-2.145c0.271-0.217,0.653-0.234,0.943-0.041l2.633,1.756
	C20.288,25.556,21,25.175,21,24.537z"/>
<path fill="none" stroke="#0D819B" stroke-width="1.5" stroke-linecap="round" d="M9.364,10.032h7.273"/>
<path fill="none" stroke="#0D819B" stroke-width="1.5" stroke-linecap="round" d="M9.364,14.396h7.273"/>
<path fill="none" stroke="#0D819B" stroke-width="1.5" stroke-linecap="round" d="M9.364,18.759h5.818"/>
<path fill="#FFFFFF" d="M20.5,15.668L20.5,15.668c3.59,0,6.5,2.91,6.5,6.5v2c0,3.59-2.91,6.5-6.5,6.5l0,0c-3.59,0-6.5-2.91-6.5-6.5
	v-2C14,18.578,16.91,15.668,20.5,15.668z"/>
<path fill="#0D819B" d="M25.404,21.183c0.254-0.254,0.254-0.666,0-0.92s-0.666-0.254-0.92,0L25.404,21.183z M19.596,25.152
	c-0.254,0.254-0.254,0.666,0,0.92s0.666,0.254,0.92,0L19.596,25.152z M20.516,20.263c-0.254-0.254-0.666-0.254-0.92,0
	s-0.254,0.666,0,0.92L20.516,20.263z M24.484,26.072c0.254,0.254,0.666,0.254,0.92,0s0.254-0.666,0-0.92L24.484,26.072z
	 M24.484,20.263l-4.889,4.889l0.92,0.92l4.889-4.889L24.484,20.263z M19.596,21.183l4.889,4.889l0.92-0.92l-4.889-4.889
	L19.596,21.183z M27.35,23.167c0,2.68-2.171,4.85-4.85,4.85v1.301c3.396,0,6.15-2.754,6.15-6.15H27.35z M22.5,28.017
	c-2.679,0-4.85-2.17-4.85-4.85H16.35c0,3.396,2.754,6.15,6.15,6.15V28.017z M17.65,23.167c0-2.678,2.171-4.85,4.85-4.85v-1.301
	c-3.396,0-6.15,2.754-6.15,6.15H17.65z M22.5,18.318c2.679,0,4.85,2.172,4.85,4.85h1.301c0-3.396-2.754-6.15-6.15-6.15V18.318z"/>
</svg>
