<svg width="32" height="32" viewBox="0 0 32 32" fill="none" xmlns="http://www.w3.org/2000/svg">
<path fill-rule="evenodd" clip-rule="evenodd" d="M24.921 30.4397C17.8074 30.4397 10.6928 30.4397 3.57858 30.4397C3.07682 30.2083 2.93186 29.8102 2.9325 29.272C2.94338 20.1523 2.94338 11.0326 2.9325 1.91264C2.93186 1.37376 3.07618 0.976325 3.57858 0.744965C8.7789 0.744965 13.9792 0.744965 19.1795 0.744965C19.1795 2.53312 19.1792 4.32096 19.1802 6.10912C19.1802 6.78752 19.5165 7.12416 20.1933 7.12448C21.8752 7.12544 23.5568 7.1248 25.2391 7.1248C25.3408 7.1248 25.4429 7.1248 25.5459 7.1248C25.5459 9.36608 25.5459 11.5661 25.5459 13.783C25.4887 13.7885 25.4432 13.7949 25.3971 13.7965C23.2122 13.8851 21.4413 14.7898 20.0605 16.4819C19.9815 16.5786 19.8032 16.6394 19.6714 16.6403C17.168 16.649 14.6647 16.6467 12.1613 16.648C12.0269 16.648 11.889 16.6502 11.7584 16.6778C11.3543 16.7629 11.0749 17.0976 11.0608 17.4934C11.0474 17.8794 11.2967 18.239 11.6739 18.3456C11.8103 18.3843 11.96 18.385 12.1037 18.385C14.2784 18.3875 16.4531 18.3869 18.6279 18.3869C18.7424 18.3869 18.8573 18.3869 18.9463 18.3869C18.8093 19.135 18.6749 19.8701 18.5357 20.6336C18.4522 20.6336 18.3386 20.6336 18.224 20.6336C16.1363 20.6336 14.0487 20.6314 11.9613 20.6349C11.4426 20.6362 11.0627 21.0083 11.0608 21.4963C11.0592 21.9661 11.4314 22.3437 11.9261 22.3712C12.0128 22.3763 12.0999 22.3731 12.1869 22.3731C14.2743 22.3734 16.3619 22.3786 18.4499 22.3664C18.7066 22.3651 18.8058 22.4349 18.8839 22.6851C19.6442 25.129 21.2615 26.7277 23.7123 27.4518C24.2976 27.625 24.9203 27.6704 25.5591 27.7795C25.5591 28.2509 25.5354 28.7619 25.5655 29.2701C25.5975 29.8109 25.4224 30.2074 24.921 30.4397ZM16.2762 12.6819C14.8474 12.6819 13.4186 12.68 11.9898 12.6829C11.4458 12.6842 11.0627 13.0445 11.0605 13.5421C11.0586 14.0342 11.4429 14.4173 11.9818 14.4186C14.849 14.4243 17.7162 14.4253 20.5837 14.4125C20.7808 14.4115 21.0019 14.3216 21.1683 14.209C21.4723 14.0048 21.5651 13.624 21.4512 13.281C21.3271 12.9082 21.0311 12.6854 20.6208 12.6838C19.1725 12.6797 17.7245 12.6822 16.2762 12.6819ZM16.2794 10.4349C17.7085 10.4349 19.1376 10.4362 20.5661 10.4342C20.9901 10.4336 21.2979 10.2352 21.4359 9.88576C21.6746 9.28064 21.2311 8.69696 20.5232 8.696C17.6941 8.69376 14.8653 8.69408 12.0365 8.696C11.4576 8.69632 11.0567 9.06273 11.0611 9.57568C11.0653 10.0931 11.4563 10.4346 12.0509 10.4349C13.4602 10.4358 14.8701 10.4352 16.2794 10.4349ZM14.2378 4.72768C13.5034 4.72768 12.7687 4.72576 12.0343 4.728C11.4567 4.72992 11.0704 5.06848 11.0608 5.57472C11.0512 6.07872 11.4359 6.46048 12 6.46368C13.4979 6.47264 14.9965 6.47264 16.4947 6.46368C17.0595 6.46048 17.4458 6.08256 17.4387 5.57984C17.432 5.07296 17.0455 4.73056 16.4707 4.728C15.7264 4.72544 14.9821 4.72768 14.2378 4.72768ZM13.9591 26.3411C14.6067 26.3411 15.2541 26.3437 15.9018 26.3402C16.4717 26.337 16.8589 25.9846 16.8592 25.4774C16.8592 24.9853 16.48 24.6096 15.9325 24.6054C14.6183 24.5949 13.3037 24.5949 11.9891 24.6048C11.4419 24.6096 11.0615 24.9837 11.0611 25.4755C11.0605 25.9827 11.448 26.337 12.0167 26.3402C12.6637 26.3437 13.3114 26.3411 13.9591 26.3411ZM7.86658 12.6832C7.66434 12.6832 7.46178 12.6765 7.25986 12.6848C6.81858 12.7024 6.47202 13.0262 6.42434 13.4557C6.37762 13.8778 6.65186 14.3222 7.08418 14.3706C7.59586 14.4278 8.12258 14.4282 8.6349 14.3763C9.0717 14.3322 9.35266 13.9014 9.31714 13.4771C9.28034 13.0349 8.9293 12.7011 8.47362 12.6838C8.27138 12.6765 8.06914 12.6829 7.86658 12.6832ZM7.86146 18.3843C8.07362 18.3843 8.28578 18.393 8.4973 18.3824C8.93602 18.3613 9.2781 18.0278 9.31714 17.5955C9.35426 17.1827 9.08738 16.7469 8.66786 16.7005C8.14722 16.6432 7.61058 16.6416 7.0893 16.6963C6.65634 16.7414 6.3805 17.1846 6.42402 17.607C6.4685 18.0368 6.81474 18.3642 7.25506 18.3834C7.45666 18.3923 7.65922 18.385 7.86146 18.3843ZM7.85698 10.4346C8.04962 10.4346 8.24226 10.4384 8.4349 10.4339C8.93538 10.4224 9.30786 10.065 9.31906 9.58848C9.33026 9.1312 8.97794 8.72896 8.50434 8.70304C8.08194 8.68 7.65602 8.67968 7.2333 8.70336C6.76066 8.7296 6.40898 9.13441 6.42114 9.59104C6.43362 10.0547 6.80034 10.4173 7.27874 10.433C7.47138 10.4397 7.66402 10.4342 7.85698 10.4346ZM7.88994 20.6339C7.6877 20.6339 7.48514 20.6285 7.28322 20.6349C6.80418 20.6493 6.43618 21.0093 6.42178 21.4726C6.40706 21.9293 6.75618 22.3354 7.22946 22.3638C7.65154 22.3891 8.07746 22.3878 8.50018 22.3651C8.97506 22.3398 9.32802 21.9405 9.31938 21.4832C9.3101 21.0074 8.93762 20.6464 8.43938 20.6346C8.25602 20.6304 8.0733 20.6336 7.88994 20.6339ZM7.87298 4.73056C7.66018 4.73056 7.44706 4.72 7.23522 4.7328C6.79554 4.75872 6.45346 5.10112 6.42242 5.5312C6.3917 5.95936 6.68386 6.38688 7.11618 6.4272C7.61314 6.47328 8.12066 6.47328 8.61762 6.42816C9.05154 6.38912 9.34594 5.96544 9.31746 5.53664C9.28898 5.10464 8.94978 4.76064 8.51042 4.73312C8.2989 4.72 8.08578 4.73088 7.87298 4.73056ZM7.86594 26.3373C7.86594 26.3373 7.86594 26.336 7.86594 26.3354C8.08802 26.3354 8.31138 26.3491 8.5325 26.3322C8.96898 26.2995 9.30146 25.9424 9.31874 25.5098C9.33538 25.0906 9.04738 24.68 8.6253 24.6416C8.12834 24.5962 7.62082 24.5952 7.12354 24.6397C6.6893 24.6787 6.3949 25.1011 6.42242 25.5299C6.44994 25.9613 6.78946 26.3066 7.22882 26.335C7.44002 26.3488 7.65346 26.3373 7.86594 26.3373Z" fill="white"/>
<path fill-rule="evenodd" clip-rule="evenodd" d="M25.5837 15.5344C28.4583 15.5437 30.7857 17.8893 30.7786 20.7709C30.7716 23.6576 28.4161 25.9885 25.5201 25.9734C22.6484 25.9581 20.3277 23.6054 20.3399 20.7219C20.3517 17.8496 22.7012 15.5254 25.5837 15.5344ZM24.9287 20.7808C24.7159 20.5526 24.5348 20.3386 24.3329 20.1466C23.9687 19.799 23.4503 19.799 23.1085 20.1322C22.7572 20.4742 22.7505 21.0022 23.1111 21.3766C23.5053 21.7869 23.9079 22.1901 24.3181 22.584C24.6935 22.9453 25.1946 22.9514 25.5629 22.5901C26.3882 21.7782 27.2045 20.9565 28.0196 20.1341C28.2205 19.9315 28.3117 19.6787 28.2609 19.393C28.2004 19.0541 28.0113 18.8112 27.6753 18.7043C27.3313 18.5952 27.026 18.6758 26.7722 18.929C26.1713 19.5283 25.5741 20.1318 24.9287 20.7808Z" fill="white"/>
<path fill-rule="evenodd" clip-rule="evenodd" d="M24.9066 5.37952C23.6321 5.37952 22.2993 5.37952 20.9431 5.37952C20.9431 4.0288 20.9431 2.68192 20.9431 1.41664C22.2401 2.71392 23.5841 4.05728 24.9066 5.37952Z" fill="white"/>
</svg>
