<svg width="12" height="13" viewBox="0 0 12 13" fill="none" xmlns="http://www.w3.org/2000/svg">
<path d="M9.75 2.94118V10.7059C9.75 11.4206 9.19036 12 8.5 12H3.5C2.80964 12 2.25 11.4206 2.25 10.7059V2.94118H4.125V2.29412C4.125 1.5794 4.68464 1 5.375 1H6.625C7.31536 1 7.875 1.5794 7.875 2.29412V2.94118H9.75Z" fill="#ED6662"/>
<path d="M4.75 5.52941V9.41176M7.25 5.52941V9.41176M9.75 2.94118V10.7059C9.75 11.4206 9.19036 12 8.5 12H3.5C2.80964 12 2.25 11.4206 2.25 10.7059V2.94118M1 2.94118H11M7.875 2.94118V2.29412C7.875 1.5794 7.31536 1 6.625 1H5.375C4.68464 1 4.125 1.5794 4.125 2.29412V2.94118" stroke="white" stroke-width="1.2" stroke-linecap="round" stroke-linejoin="round"/>
</svg>
