<svg width="29" height="23" viewBox="0 0 29 23" fill="none" xmlns="http://www.w3.org/2000/svg">
<path d="M27.8442 12.3057H22.9193C22.2297 12.3057 21.8849 12.3057 21.6242 12.4918C21.3635 12.678 21.2515 13.0041 21.0277 13.6563L20.3667 15.5817C20.1428 16.2339 20.0309 16.56 19.7701 16.7462C19.5094 16.9323 19.1646 16.9323 18.4751 16.9323H10.2134C9.52384 16.9323 9.17905 16.9323 8.91833 16.7462C8.65761 16.56 8.54566 16.2339 8.32177 15.5817L7.66082 13.6563C7.43693 13.0041 7.32499 12.678 7.06426 12.4918C6.80354 12.3057 6.45875 12.3057 5.76918 12.3057H0.844238" stroke="#00666A" stroke-width="1.5"/>
<path d="M10.3733 7.67935L14.3439 11.5349M14.3439 11.5349L18.3145 7.67935M14.3439 11.5349L14.3439 0.739337" stroke="#00666A" stroke-width="1.5"/>
<path d="M5.60894 6.13696L2.15917 8.37019C1.67877 8.68118 1.43856 8.83667 1.26451 9.04441C1.11044 9.2283 0.994681 9.44113 0.924041 9.6704C0.844238 9.9294 0.844238 10.2155 0.844238 10.7878V18.6792C0.844238 19.6873 0.844238 20.1914 1.04043 20.5764C1.213 20.9151 1.48836 21.1905 1.82706 21.363C2.2121 21.5592 2.71614 21.5592 3.72424 21.5592H24.9642C25.9723 21.5592 26.4764 21.5592 26.8614 21.363C27.2001 21.1905 27.4755 20.9151 27.648 20.5764C27.8442 20.1914 27.8442 19.6873 27.8442 18.6792V10.7878C27.8442 10.2155 27.8442 9.9294 27.7644 9.6704C27.6938 9.44113 27.578 9.2283 27.424 9.04441C27.2499 8.83667 27.0097 8.68118 26.5293 8.37019L23.0795 6.13696" stroke="#00666A" stroke-width="1.5" stroke-linecap="round"/>
</svg>
