<svg width="36" height="36" viewBox="0 0 36 36" fill="none" xmlns="http://www.w3.org/2000/svg">
<g clip-path="url(#clip0_17_2119)">
<path fill-rule="evenodd" clip-rule="evenodd" d="M17.9443 31.4461C17.9443 30.8828 17.9443 30.3434 17.9443 29.7059C19.0694 30.694 20.1374 31.6317 21.2462 32.606C20.1576 33.5646 19.0872 34.5069 17.9589 35.5C17.9589 34.8828 17.9589 34.3298 17.9589 33.7953C17.0872 33.7059 16.2549 33.6583 15.4354 33.5295C9.00033 32.5197 3.78867 27.5256 2.50705 21.1626C1.03235 13.8424 4.86337 6.50116 11.6832 3.56738C11.8798 3.48291 12.0097 3.47865 12.1776 3.63198C12.7288 4.13738 13.297 4.62363 13.8894 5.14465C9.98524 6.49655 7.16504 8.98774 5.54198 12.7449C4.249 15.7387 4.09816 18.8354 5.05787 21.9473C7.01845 28.3043 12.8778 31.5572 17.9443 31.4461Z" fill="white"/>
<path fill-rule="evenodd" clip-rule="evenodd" d="M14.6499 3.40518C15.748 2.43944 16.8131 1.5028 17.9336 0.51683C17.9336 1.12871 17.9336 1.68062 17.9336 2.21868C18.7819 2.30421 19.5957 2.32586 20.3854 2.47529C26.8823 3.70225 31.2198 7.45696 33.098 13.7927C35.3202 21.2886 31.4231 29.3258 24.2534 32.4331C24.0092 32.5385 23.8622 32.5151 23.6713 32.338C23.1389 31.8447 22.5845 31.3744 22.0106 30.8704C25.9162 29.5111 28.7431 27.0131 30.3626 23.2378C31.6439 20.2529 31.7915 17.169 30.8375 14.0695C28.9163 7.82643 23.1772 4.47207 17.9535 4.56116C17.9535 5.11306 17.9535 5.66851 17.9535 6.31128C16.8217 5.31572 15.7583 4.38015 14.6499 3.40518Z" fill="white"/>
<path fill-rule="evenodd" clip-rule="evenodd" d="M17.962 27.5821C12.7003 27.5977 8.36353 23.2751 8.35962 18.0113C8.35607 12.7481 12.6819 8.42661 17.951 8.43051C23.212 8.43406 27.5165 12.724 27.5353 17.9825C27.5545 23.2414 23.2415 27.5661 17.962 27.5821ZM9.96103 17.9974C9.9557 22.4041 13.5276 25.9814 17.9389 25.9853C22.3527 25.9895 25.9293 22.424 25.9339 18.0148C25.9392 13.6053 22.3691 10.0309 17.9563 10.0273C13.5415 10.0241 9.96635 13.5875 9.96103 17.9974Z" fill="white"/>
<path fill-rule="evenodd" clip-rule="evenodd" d="M18.4408 11.0388C21.9212 11.2699 24.7123 14.11 24.9217 17.5129C24.642 17.5129 24.3645 17.5083 24.0869 17.514C23.7256 17.5211 23.5212 17.6993 23.5176 17.9995C23.5134 18.3009 23.7192 18.4904 24.0731 18.4986C24.352 18.506 24.6321 18.5 24.9125 18.5C24.7474 21.8916 21.8566 24.792 18.4412 24.962C18.4412 24.7047 18.4437 24.4488 18.4408 24.1926C18.4359 23.7759 18.2634 23.5658 17.9358 23.5718C17.6206 23.5782 17.4584 23.7798 17.4538 24.1784C17.4509 24.4346 17.4531 24.6912 17.4531 24.9485C14.4632 24.8744 11.2132 22.2852 10.9736 18.5007C11.2533 18.5007 11.5312 18.5049 11.8091 18.4993C12.1683 18.4918 12.3742 18.3115 12.3773 18.012C12.3805 17.7117 12.1743 17.5222 11.8208 17.5144C11.5415 17.5073 11.2622 17.5129 10.9818 17.5129C11.1483 14.0851 14.0838 11.2102 17.4538 11.0527C17.4538 11.3334 17.4485 11.6131 17.4549 11.8924C17.4637 12.247 17.6533 12.4479 17.9588 12.4408C18.2474 12.434 18.4284 12.2377 18.4387 11.9023C18.4476 11.6223 18.4408 11.3419 18.4408 11.0388ZM17.21 18.8584C16.8327 18.4116 16.4717 17.9804 16.1062 17.5538C15.8577 17.2638 15.5723 17.2063 15.3416 17.3894C15.0928 17.5868 15.0936 17.8842 15.3523 18.1926C15.7977 18.7243 16.2467 19.2531 16.696 19.7819C17.0357 20.1819 17.2958 20.1926 17.66 19.816C18.5998 18.8442 19.5375 17.87 20.4749 16.8954C20.5483 16.8191 20.6655 16.7357 20.6683 16.6526C20.6747 16.4585 20.6797 16.2253 20.581 16.0773C20.4444 15.8721 20.1931 15.8768 19.9808 16.0127C19.8839 16.0748 19.8059 16.1689 19.7246 16.2533C18.8912 17.1151 18.0593 17.9779 17.21 18.8584Z" fill="white"/>
</g>
<defs>
<clipPath id="clip0_17_2119">
<rect width="35.4921" height="35.4921" fill="white" transform="translate(0.253906 0.00787354)"/>
</clipPath>
</defs>
</svg>
