<?xml version="1.0" encoding="utf-8"?>
<!-- Generator: Adobe Illustrator 16.0.0, SVG Export Plug-In . SVG Version: 6.00 Build 0)  -->
<!DOCTYPE svg PUBLIC "-//W3C//DTD SVG 1.1//EN" "http://www.w3.org/Graphics/SVG/1.1/DTD/svg11.dtd">
<svg version="1.1" id="Layer_1" xmlns="http://www.w3.org/2000/svg" xmlns:xlink="http://www.w3.org/1999/xlink" x="0px" y="0px"
	 width="30.5px" height="30.667px" viewBox="0 0 30.5 30.667" enable-background="new 0 0 30.5 30.667" xml:space="preserve">
<path fill="none" stroke="#8E4267" stroke-width="1.5" d="M24.034,27.982V3.435c0-0.722-0.804-1.152-1.405-0.751l-2.973,1.981
	c-0.328,0.218-0.76,0.2-1.065-0.046l-3.027-2.421c-0.33-0.264-0.798-0.264-1.128,0l-3.027,2.421
	c-0.307,0.246-0.738,0.264-1.065,0.046L7.37,2.684c-0.6-0.4-1.404,0.029-1.404,0.751v24.547c0,0.721,0.804,1.152,1.404,0.752
	l2.974-1.982c0.328-0.219,0.758-0.199,1.065,0.047l3.027,2.422c0.33,0.263,0.798,0.263,1.128,0l3.027-2.422
	c0.308-0.246,0.737-0.266,1.065-0.047l2.973,1.982C23.23,29.134,24.034,28.703,24.034,27.982z"/>
<path fill="none" stroke="#8E4267" stroke-width="1.5" stroke-linecap="round" d="M10.894,11.602h8.213"/>
<path fill="none" stroke="#8E4267" stroke-width="1.5" stroke-linecap="round" d="M10.894,16.531h8.213"/>
<path fill="none" stroke="#8E4267" stroke-width="1.5" stroke-linecap="round" d="M10.894,21.458h6.57"/>
</svg>
