<svg width="31" height="39" viewBox="0 0 31 39" fill="none" xmlns="http://www.w3.org/2000/svg">
<path fill-rule="evenodd" clip-rule="evenodd" d="M27.4375 38.3715C20.2546 38.3715 13.0717 38.3715 5.88879 38.3715C5.82315 38.3472 5.75958 38.3158 5.69147 38.3001C4.05932 37.9311 2.97906 36.9515 2.58072 35.3276C2.42716 34.7027 2.48371 34.0249 2.45193 33.3706C2.43996 33.1213 2.45028 32.8707 2.45028 32.6193C1.12647 32.6829 0.405746 31.9275 0.442896 30.5327C0.500274 28.38 0.457344 26.2253 0.458582 24.0718C0.458995 23.1104 0.442897 22.1482 0.475507 21.188C0.504402 20.3365 1.15413 19.7214 2.00529 19.6768C2.14523 19.6694 2.2864 19.6756 2.45069 19.6756C2.45069 19.4779 2.45069 19.333 2.45069 19.1893C2.45069 14.4794 2.44739 9.77078 2.45234 5.06089C2.45399 3.20872 3.53921 1.6971 5.23328 1.16047C5.45 1.09154 5.67042 1.03499 5.88879 0.972656C11.0994 0.972656 16.31 0.972656 21.5202 0.972656C21.6077 1.08328 21.6836 1.20464 21.7827 1.3033C24.7123 4.22624 27.6402 7.14959 30.5788 10.0639C30.8025 10.2859 30.9032 10.5022 30.9028 10.8222C30.8941 18.5631 30.8958 26.3037 30.895 34.0443C30.895 34.2263 30.8925 34.4096 30.8834 34.592C30.8219 35.806 30.2923 36.7765 29.3524 37.5377C28.7885 37.993 28.1194 38.1944 27.4375 38.3715ZM4.8787 32.6049C4.8787 33.1473 4.87787 33.6327 4.8787 34.1177C4.88076 35.3309 5.48426 35.9377 6.69661 35.9385C13.3429 35.939 19.9896 35.939 26.6363 35.9385C27.8775 35.9385 28.4641 35.345 28.4599 34.0971C28.4401 26.6595 28.4203 19.2219 28.4001 11.7844C28.3993 11.6539 28.4001 11.5235 28.4001 11.3542C28.2176 11.3542 28.0744 11.3542 27.9308 11.3542C26.2883 11.3509 24.6437 11.3819 23.0025 11.3324C21.7612 11.2952 20.6211 10.16 20.5799 8.91962C20.5229 7.22926 20.5464 5.53642 20.5336 3.84524C20.5324 3.70448 20.5196 3.5633 20.5105 3.40644C20.3908 3.40108 20.3078 3.39365 20.2253 3.39365C15.6846 3.39778 11.144 3.39943 6.60332 3.40975C5.50242 3.41222 4.88076 4.04214 4.87994 5.1385C4.87705 9.8616 4.8787 14.5847 4.8787 19.3078C4.8787 19.4234 4.8787 19.539 4.8787 19.6719C5.08344 19.6719 5.22874 19.6719 5.37445 19.6719C11.4853 19.6719 17.5958 19.6715 23.7071 19.6719C24.9868 19.6719 25.601 20.2911 25.601 21.5827C25.6014 24.6257 25.5812 27.6692 25.6117 30.7118C25.6229 31.8693 24.8955 32.6247 23.6923 32.6185C17.5814 32.5888 11.4705 32.6049 5.36001 32.6049C5.21553 32.6049 5.07188 32.6049 4.8787 32.6049ZM10.5157 23.0332C10.5157 25.2713 10.5157 27.4645 10.5157 29.689C11.4329 29.689 12.3262 29.7641 13.2021 29.6741C15.3069 29.459 16.3731 28.2909 16.4359 26.2496C16.4904 24.4973 15.5534 23.3366 13.8296 23.0138C12.7266 22.8074 11.6273 22.8999 10.5157 23.0332ZM6.16907 27.339C6.735 27.2812 7.24809 27.2733 7.74179 27.171C8.86374 26.9382 9.51511 26.0985 9.49571 24.9848C9.47673 23.905 8.81916 23.1707 7.65964 22.975C6.66648 22.8074 5.67579 22.9065 4.67726 23.0373C4.67726 25.2577 4.67726 27.4525 4.67726 29.6654C5.17797 29.6654 5.65763 29.6654 6.16948 29.6654C6.16907 28.8737 6.16907 28.0997 6.16907 27.339ZM17.4741 22.9655C17.4741 25.228 17.4741 27.4459 17.4741 29.6605C17.9847 29.6605 18.4656 29.6605 18.9873 29.6605C18.9873 28.7569 18.9873 27.876 18.9873 26.9576C19.8121 26.9576 20.5955 26.9576 21.3761 26.9576C21.3761 26.534 21.3761 26.1501 21.3761 25.727C20.5708 25.727 19.7869 25.727 19.0022 25.727C19.0022 25.1962 19.0022 24.7054 19.0022 24.1865C19.8653 24.1865 20.7004 24.1865 21.5544 24.1865C21.5544 23.7647 21.5544 23.3717 21.5544 22.9659C20.1836 22.9655 18.8379 22.9655 17.4741 22.9655Z" fill="#ED6662"/>
<path fill-rule="evenodd" clip-rule="evenodd" d="M12.0319 28.5022C12.0319 27.0406 12.0319 25.5971 12.0319 24.1581C12.9119 23.8902 13.941 24.1775 14.4264 24.819C14.9337 25.4877 14.9486 26.887 14.457 27.6643C14.0099 28.3706 13.0494 28.7099 12.0319 28.5022Z" fill="#ED6662"/>
<path fill-rule="evenodd" clip-rule="evenodd" d="M6.17657 26.158C6.17657 25.4645 6.16832 24.8841 6.18524 24.3038C6.18772 24.2224 6.30536 24.0821 6.3776 24.0763C6.65293 24.0565 6.93775 24.0454 7.2073 24.0953C7.69604 24.1869 7.9561 24.5015 7.9916 24.9642C8.02668 25.4241 7.79387 25.8649 7.35302 25.9966C6.99513 26.1035 6.60422 26.1035 6.17657 26.158Z" fill="#ED6662"/>
</svg>
