<svg width="43" height="42" viewBox="0 0 43 42" fill="none" xmlns="http://www.w3.org/2000/svg">
<g clip-path="url(#clip0_17_2126)">
<path fill-rule="evenodd" clip-rule="evenodd" d="M31.4431 34.3697C29.4545 34.3697 27.4896 34.3697 25.513 34.3697C25.3958 33.1794 25.6314 32.1218 26.6014 31.3242C26.9501 31.0375 27.0715 30.7262 26.9239 30.3966C26.8633 30.2616 26.7577 30.1327 26.6422 30.038C25.8679 29.4005 25.4872 28.5838 25.4931 27.5835C25.4939 27.3827 25.4931 27.1816 25.4931 26.9613C27.4713 26.9613 29.4412 26.9613 31.424 26.9613C31.5408 28.1346 31.3064 29.1868 30.3534 29.9856C29.8206 30.4315 29.8194 30.8916 30.3455 31.3317C31.0508 31.9214 31.4123 32.682 31.441 33.6004C31.4493 33.8473 31.4431 34.0954 31.4431 34.3697Z" fill="white"/>
<path fill-rule="evenodd" clip-rule="evenodd" d="M28.4579 25.4548C27.234 25.4548 26.0105 25.4581 24.7866 25.4536C24.2122 25.4511 23.8436 24.9145 24.0705 24.4142C24.2089 24.1083 24.4595 23.9666 24.7945 23.967C25.848 23.9682 26.9011 23.9674 27.9546 23.9674C29.3485 23.9674 30.7429 23.9649 32.1368 23.9686C32.7144 23.9699 33.0905 24.4969 32.8699 24.9968C32.7302 25.3118 32.4742 25.4565 32.1285 25.4561C30.9058 25.4536 29.6814 25.4548 28.4579 25.4548Z" fill="white"/>
<path fill-rule="evenodd" clip-rule="evenodd" d="M28.4707 37.3553C27.2393 37.3549 26.0083 37.3574 24.7761 37.3541C24.3671 37.3528 24.0492 37.0702 24.0093 36.6891C23.9702 36.3209 24.2084 35.9818 24.5741 35.8904C24.6406 35.8737 24.7121 35.8683 24.7807 35.8683C27.236 35.8675 29.6913 35.8675 32.147 35.8675C32.4828 35.8675 32.731 36.0163 32.8668 36.3213C32.9965 36.611 32.9371 36.884 32.7247 37.1172C32.5635 37.2942 32.3557 37.357 32.1184 37.3566C30.9032 37.3537 29.6871 37.3553 28.4707 37.3553Z" fill="white"/>
<path fill-rule="evenodd" clip-rule="evenodd" d="M27.436 22.3452C29.3415 17.1685 26.3987 12.4499 22.9252 10.7156C19.1682 8.83963 14.7442 9.64048 11.8077 12.7849C9.07431 15.7115 8.63004 20.3038 10.7167 23.7964C12.7132 27.1374 17.1343 29.4639 22.0325 27.7358C22.0325 27.9644 22.0325 28.1776 22.0325 28.3925C22.0325 29.212 22.0175 30.032 22.0408 30.8511C22.0487 31.1441 21.949 31.2488 21.6759 31.3095C17.7943 32.1602 14.2318 31.4496 11.0596 29.0512C8.37985 27.0247 6.7287 24.3138 6.2437 20.9912C5.58457 16.4786 6.98595 12.6419 10.3602 9.56401C12.1647 7.91784 14.307 6.89798 16.7204 6.55428C21.2233 5.91344 25.0659 7.27284 28.1293 10.6375C30.3656 13.0941 31.4108 16.0464 31.321 19.3654C31.2961 20.2871 31.0837 21.2044 30.942 22.1216C30.9291 22.2051 30.8032 22.3344 30.7288 22.3356C29.6337 22.3489 28.5394 22.3452 27.436 22.3452Z" fill="white"/>
<path fill-rule="evenodd" clip-rule="evenodd" d="M19.3842 26.9601C19.3414 26.4182 19.5239 25.7021 18.7193 25.6929C17.886 25.6834 18.0784 26.4194 18.0302 26.9343C16.7215 26.9676 14.5409 26.0662 13.5921 25.1045C13.8061 24.7886 14.2541 24.6049 14.1852 24.1287C14.1644 23.9857 14.0925 23.8265 13.994 23.7218C13.6802 23.3881 13.3831 23.4841 12.608 24.1511C11.5341 22.8653 10.919 21.3982 10.7603 19.6843C10.9755 19.6843 11.1709 19.6901 11.3654 19.6831C11.7697 19.6681 12.0536 19.3938 12.0565 19.0248C12.0594 18.6561 11.7755 18.3748 11.3749 18.3577C11.1883 18.3502 11.0009 18.3565 10.8164 18.3565C10.6643 17.2734 11.6716 14.8086 12.625 13.9076C13.4213 14.5671 13.6931 14.6448 14.016 14.3057C14.3265 13.9795 14.2433 13.7081 13.5958 12.938C14.4765 12.0041 16.6376 11.1031 18.0439 11.0998C18.0439 11.2956 18.0373 11.4917 18.0452 11.6879C18.0618 12.0885 18.3432 12.3719 18.7122 12.369C19.0808 12.3661 19.3547 12.0819 19.3705 11.6779C19.3776 11.4917 19.3718 11.3051 19.3718 11.121C20.5421 11.0159 22.7642 11.9202 23.8805 12.9824C23.7309 13.1075 23.568 13.2193 23.435 13.3594C23.1528 13.6565 23.1491 14.0472 23.4068 14.3111C23.6648 14.575 24.0613 14.5812 24.358 14.3024C24.5006 14.1681 24.6066 13.9948 24.7288 13.8398C25.7615 14.8688 26.6667 17.064 26.6189 18.3432C26.1031 18.3906 25.3679 18.2006 25.38 19.0351C25.3916 19.8389 26.1102 19.6515 26.6459 19.6984C26.5923 20.5849 26.3704 21.4111 26.0138 22.2003C25.9801 22.2759 25.8268 22.3362 25.727 22.3383C25.0741 22.3499 24.4204 22.3416 23.7671 22.3449C22.7426 22.3512 22.0399 23.0552 22.0332 24.0821C22.0299 24.7354 22.0419 25.3892 22.0237 26.0425C22.0208 26.1505 21.921 26.3097 21.8246 26.3525C21.0611 26.6962 20.2607 26.9007 19.3842 26.9601ZM16.8105 19.6855C16.8466 19.7537 16.874 19.8019 16.8986 19.851C17.3117 20.6684 18.1187 21.1193 18.9582 21.0009C19.8518 20.8754 20.5338 20.2055 20.6817 19.3078C20.8189 18.477 20.3821 17.6466 19.5696 17.2306C19.4183 17.1529 19.3672 17.0715 19.3689 16.9056C19.3767 16.0749 19.3776 15.2437 19.3697 14.4133C19.3659 13.9898 19.0779 13.6981 18.6968 13.7043C18.3157 13.7101 18.0469 14.0019 18.0444 14.4337C18.039 15.331 18.0427 16.2274 18.0427 17.1351C17.4596 17.3665 17.0548 17.7697 16.8217 18.3561C16.3724 18.3561 15.9298 18.3532 15.4876 18.3565C15.0251 18.3602 14.7292 18.6141 14.7204 19.0061C14.7117 19.4092 15.0172 19.6806 15.4918 19.6843C15.9348 19.6885 16.377 19.6855 16.8105 19.6855Z" fill="white"/>
<path fill-rule="evenodd" clip-rule="evenodd" d="M33.0028 22.3279C33.0976 21.5981 33.2297 20.8791 33.2771 20.1548C33.5842 15.4843 32.0312 11.5312 28.6499 8.29746C28.3943 8.05309 28.1138 7.83407 27.8482 7.59968C27.5162 7.30669 27.4684 6.93556 27.7177 6.63343C27.9658 6.33378 28.3523 6.30178 28.6923 6.57857C31.7465 9.06672 33.6599 12.241 34.3955 16.1139C34.789 18.1832 34.7529 20.2512 34.3161 22.3283C33.8693 22.3279 33.4305 22.3279 33.0028 22.3279Z" fill="white"/>
<path fill-rule="evenodd" clip-rule="evenodd" d="M22.0182 33.2896C22.0182 33.7334 22.0182 34.1636 22.0182 34.6818C21.128 34.777 20.234 34.9387 19.3364 34.9586C14.0687 35.0775 9.72451 33.1225 6.32704 29.0834C6.13129 28.8506 5.99997 28.6092 6.12797 28.2971C6.32704 27.8133 6.88975 27.7327 7.26503 28.135C7.76291 28.6694 8.22297 29.2454 8.76325 29.7321C12.4782 33.0776 16.8054 34.2575 21.7131 33.3332C21.8087 33.3149 21.906 33.3054 22.0182 33.2896Z" fill="white"/>
<path fill-rule="evenodd" clip-rule="evenodd" d="M19.3697 19.0219C19.3688 19.3888 19.0551 19.6935 18.6893 19.6831C18.3357 19.6731 18.0443 19.373 18.0452 19.0189C18.0456 18.6524 18.3585 18.3482 18.7251 18.3581C19.0787 18.3681 19.3709 18.669 19.3697 19.0219Z" fill="white"/>
</g>
<defs>
<clipPath id="clip0_17_2126">
<rect width="41.5593" height="41.5593" fill="white" transform="translate(0.595703 0.226639)"/>
</clipPath>
</defs>
</svg>
