<?xml version="1.0" encoding="utf-8"?>
<!-- Generator: Adobe Illustrator 16.0.0, SVG Export Plug-In . SVG Version: 6.00 Build 0)  -->
<!DOCTYPE svg PUBLIC "-//W3C//DTD SVG 1.1//EN" "http://www.w3.org/Graphics/SVG/1.1/DTD/svg11.dtd">
<svg version="1.1" id="Layer_1" xmlns="http://www.w3.org/2000/svg" xmlns:xlink="http://www.w3.org/1999/xlink" x="0px" y="0px"
	 width="247px" height="274.5px" viewBox="0 0 247 274.5" enable-background="new 0 0 247 274.5" xml:space="preserve">
<path fill="#FF7A00" d="M38.618,196.872c0,0.507-0.123,0.984-0.368,1.429c-0.235,0.443-0.612,0.802-1.129,1.075
	c-0.508,0.272-1.152,0.407-1.932,0.407h-1.592v3.648h-1.905v-9.5h3.497c0.735,0,1.361,0.127,1.878,0.381
	c0.517,0.255,0.903,0.604,1.156,1.05C38.486,195.806,38.618,196.309,38.618,196.872z M35.106,198.245
	c0.526,0,0.917-0.118,1.17-0.353c0.254-0.245,0.381-0.586,0.381-1.021c0-0.926-0.517-1.389-1.552-1.389h-1.51v2.762H35.106z
	 M52.667,193.932l-2.654,9.5h-2.245l-1.783-6.765l-1.864,6.765l-2.231,0.012l-2.559-9.512h2.042l1.673,7.377l1.933-7.377h2.122
	l1.823,7.336l1.688-7.336H52.667z M57.231,193.932c0.998,0,1.874,0.196,2.626,0.586c0.763,0.391,1.348,0.947,1.756,1.674
	c0.417,0.717,0.626,1.55,0.626,2.503c0,0.954-0.209,1.788-0.626,2.504c-0.408,0.708-0.993,1.258-1.756,1.647
	c-0.752,0.39-1.628,0.586-2.626,0.586h-3.32v-9.5H57.231z M57.163,201.812c0.999,0,1.77-0.272,2.314-0.817s0.816-1.31,0.816-2.3
	c0-0.989-0.271-1.76-0.816-2.313c-0.544-0.563-1.315-0.844-2.314-0.844h-1.347v6.273H57.163z M72.296,198.56
	c0.535,0.099,0.976,0.367,1.32,0.802c0.345,0.436,0.517,0.935,0.517,1.497c0,0.508-0.127,0.957-0.381,1.348
	c-0.245,0.381-0.603,0.68-1.075,0.898c-0.472,0.217-1.03,0.327-1.674,0.327h-4.096v-9.5h3.919c0.644,0,1.197,0.104,1.66,0.313
	c0.472,0.21,0.826,0.5,1.062,0.872c0.245,0.371,0.367,0.793,0.367,1.265c0,0.553-0.149,1.016-0.449,1.388
	C73.176,198.143,72.786,198.405,72.296,198.56z M68.813,197.852h1.741c0.454,0,0.803-0.101,1.048-0.3
	c0.245-0.209,0.367-0.504,0.367-0.885c0-0.38-0.123-0.675-0.367-0.884c-0.246-0.209-0.594-0.313-1.048-0.313h-1.741V197.852z
	 M70.731,201.879c0.462,0,0.82-0.108,1.075-0.326c0.263-0.218,0.395-0.526,0.395-0.926c0-0.407-0.137-0.726-0.409-0.953
	c-0.272-0.234-0.64-0.353-1.102-0.353h-1.878v2.558H70.731z M82.769,195.892v7.54H80.85v-0.954
	c-0.245,0.327-0.567,0.585-0.966,0.776c-0.39,0.182-0.816,0.271-1.279,0.271c-0.589,0-1.11-0.123-1.564-0.367
	c-0.454-0.254-0.812-0.621-1.075-1.103c-0.254-0.489-0.381-1.071-0.381-1.74v-4.424h1.905v4.149c0,0.601,0.15,1.063,0.449,1.39
	c0.299,0.316,0.708,0.476,1.225,0.476c0.526,0,0.938-0.159,1.239-0.476c0.299-0.327,0.449-0.789,0.449-1.39v-4.149H82.769z
	 M85.614,194.994c-0.335,0-0.617-0.104-0.844-0.313c-0.218-0.219-0.326-0.485-0.326-0.803c0-0.318,0.108-0.581,0.326-0.789
	c0.227-0.219,0.508-0.327,0.844-0.327s0.612,0.108,0.83,0.327c0.227,0.208,0.34,0.471,0.34,0.789c0,0.317-0.113,0.584-0.34,0.803
	C86.227,194.89,85.95,194.994,85.614,194.994z M86.554,195.892v7.54h-1.906v-7.54H86.554z M90.34,193.361v10.071h-1.905v-10.071
	H90.34z M91.733,199.634c0-0.762,0.149-1.438,0.449-2.027c0.309-0.59,0.726-1.043,1.252-1.361c0.526-0.316,1.111-0.476,1.755-0.476
	c0.49,0,0.958,0.108,1.402,0.326c0.444,0.209,0.798,0.489,1.062,0.845v-3.58h1.933v10.071h-1.933v-1.117
	c-0.236,0.372-0.567,0.672-0.994,0.898c-0.426,0.227-0.92,0.341-1.483,0.341c-0.635,0-1.216-0.164-1.742-0.491
	c-0.526-0.325-0.944-0.784-1.252-1.374C91.882,201.09,91.733,200.406,91.733,199.634z M97.666,199.661
	c0-0.464-0.091-0.856-0.272-1.184c-0.182-0.335-0.426-0.59-0.735-0.763c-0.308-0.181-0.639-0.271-0.994-0.271
	c-0.354,0-0.68,0.086-0.979,0.258c-0.299,0.172-0.544,0.426-0.734,0.763c-0.182,0.326-0.272,0.717-0.272,1.17
	c0,0.454,0.091,0.853,0.272,1.197c0.19,0.336,0.436,0.595,0.734,0.775c0.309,0.183,0.635,0.272,0.979,0.272
	c0.354,0,0.686-0.085,0.994-0.259c0.309-0.182,0.554-0.435,0.735-0.762C97.575,200.524,97.666,200.123,97.666,199.661z
	 M102.412,194.994c-0.336,0-0.617-0.104-0.844-0.313c-0.217-0.219-0.326-0.485-0.326-0.803c0-0.318,0.109-0.581,0.326-0.789
	c0.228-0.219,0.508-0.327,0.844-0.327c0.335,0,0.612,0.108,0.83,0.327c0.227,0.208,0.34,0.471,0.34,0.789
	c0,0.317-0.113,0.584-0.34,0.803C103.024,194.89,102.747,194.994,102.412,194.994z M103.351,195.892v7.54h-1.905v-7.54H103.351z
	 M109.41,195.783c0.898,0,1.624,0.285,2.177,0.856c0.553,0.563,0.831,1.352,0.831,2.368v4.424h-1.905v-4.165
	c0-0.6-0.15-1.058-0.449-1.374c-0.3-0.326-0.708-0.49-1.225-0.49c-0.526,0-0.943,0.164-1.252,0.49
	c-0.299,0.316-0.449,0.774-0.449,1.374v4.165h-1.905v-7.54h1.905v0.938c0.254-0.326,0.576-0.58,0.966-0.762
	C108.503,195.878,108.939,195.783,109.41,195.783z M117.182,195.77c0.563,0,1.057,0.113,1.484,0.34
	c0.426,0.218,0.762,0.504,1.007,0.856v-1.074h1.918v7.593c0,0.698-0.14,1.32-0.421,1.865c-0.281,0.553-0.704,0.989-1.266,1.306
	c-0.563,0.326-1.244,0.49-2.042,0.49c-1.07,0-1.95-0.25-2.64-0.749c-0.681-0.498-1.066-1.179-1.157-2.041h1.892
	c0.1,0.346,0.313,0.617,0.64,0.817c0.336,0.209,0.739,0.313,1.211,0.313c0.554,0,1.003-0.167,1.348-0.504
	c0.345-0.326,0.517-0.825,0.517-1.497v-1.17c-0.245,0.354-0.585,0.649-1.021,0.884c-0.426,0.237-0.917,0.355-1.47,0.355
	c-0.635,0-1.215-0.164-1.742-0.491c-0.526-0.325-0.943-0.784-1.251-1.374c-0.3-0.599-0.45-1.283-0.45-2.055
	c0-0.762,0.15-1.438,0.45-2.027c0.308-0.59,0.721-1.043,1.238-1.361C115.953,195.929,116.538,195.77,117.182,195.77z
	 M119.672,199.661c0-0.464-0.091-0.856-0.272-1.184c-0.182-0.335-0.426-0.59-0.734-0.763c-0.309-0.181-0.64-0.271-0.994-0.271
	s-0.68,0.086-0.98,0.258c-0.299,0.172-0.544,0.426-0.735,0.763c-0.182,0.326-0.272,0.717-0.272,1.17c0,0.454,0.09,0.853,0.272,1.197
	c0.191,0.336,0.436,0.595,0.735,0.775c0.309,0.183,0.635,0.272,0.98,0.272c0.354,0,0.685-0.085,0.994-0.259
	c0.308-0.182,0.553-0.435,0.734-0.762C119.582,200.524,119.672,200.123,119.672,199.661z M126.231,198.667
	c0-0.933,0.209-1.769,0.626-2.504c0.427-0.744,1.003-1.319,1.729-1.728c0.734-0.418,1.555-0.627,2.463-0.627
	c1.062,0,1.991,0.273,2.788,0.817c0.8,0.544,1.357,1.297,1.675,2.259h-2.19c-0.219-0.453-0.526-0.793-0.926-1.02
	c-0.391-0.228-0.844-0.34-1.36-0.34c-0.554,0-1.048,0.131-1.484,0.393c-0.426,0.255-0.761,0.617-1.006,1.089
	c-0.237,0.473-0.355,1.025-0.355,1.66c0,0.627,0.118,1.181,0.355,1.66c0.245,0.473,0.58,0.84,1.006,1.104
	c0.437,0.253,0.931,0.381,1.484,0.381c0.517,0,0.97-0.114,1.36-0.341c0.399-0.236,0.707-0.58,0.926-1.033h2.19
	c-0.317,0.969-0.875,1.729-1.675,2.271c-0.788,0.535-1.719,0.804-2.788,0.804c-0.908,0-1.729-0.205-2.463-0.612
	c-0.727-0.418-1.303-0.994-1.729-1.729C126.44,200.438,126.231,199.603,126.231,198.667z M140.487,203.554
	c-0.726,0-1.379-0.159-1.959-0.478c-0.582-0.326-1.039-0.784-1.375-1.374c-0.326-0.59-0.489-1.27-0.489-2.041
	c0-0.771,0.167-1.452,0.502-2.041c0.345-0.589,0.813-1.043,1.402-1.361c0.591-0.325,1.248-0.489,1.974-0.489
	s1.382,0.164,1.974,0.489c0.589,0.318,1.051,0.772,1.388,1.361c0.344,0.589,0.517,1.271,0.517,2.041
	c0,0.771-0.177,1.451-0.531,2.041c-0.344,0.59-0.816,1.048-1.414,1.374C141.885,203.395,141.222,203.554,140.487,203.554z
	 M140.487,201.893c0.345,0,0.667-0.081,0.966-0.244c0.309-0.173,0.554-0.426,0.735-0.762c0.181-0.337,0.271-0.745,0.271-1.226
	c0-0.717-0.189-1.265-0.57-1.646c-0.373-0.392-0.831-0.586-1.375-0.586c-0.545,0-1.003,0.194-1.375,0.586
	c-0.363,0.382-0.545,0.93-0.545,1.646s0.178,1.271,0.532,1.66C139.489,201.702,139.943,201.893,140.487,201.893z M149.995,195.783
	c0.897,0,1.624,0.285,2.177,0.856c0.554,0.563,0.831,1.352,0.831,2.368v4.424h-1.905v-4.165c0-0.6-0.149-1.058-0.45-1.374
	c-0.298-0.326-0.706-0.49-1.224-0.49c-0.526,0-0.943,0.164-1.252,0.49c-0.3,0.316-0.449,0.774-0.449,1.374v4.165h-1.905v-7.54h1.905
	v0.938c0.255-0.326,0.576-0.58,0.966-0.762C149.088,195.878,149.523,195.783,149.995,195.783z M157.698,203.554
	c-0.616,0-1.169-0.11-1.659-0.327c-0.49-0.228-0.881-0.531-1.171-0.912c-0.28-0.381-0.436-0.802-0.462-1.266h1.919
	c0.035,0.291,0.177,0.531,0.422,0.722c0.254,0.19,0.566,0.285,0.938,0.285c0.362,0,0.644-0.072,0.844-0.217
	c0.209-0.146,0.313-0.331,0.313-0.56c0-0.244-0.127-0.425-0.381-0.544c-0.245-0.126-0.641-0.262-1.184-0.408
	c-0.563-0.135-1.025-0.276-1.389-0.421c-0.354-0.146-0.662-0.367-0.925-0.667c-0.254-0.3-0.381-0.704-0.381-1.211
	c0-0.417,0.118-0.798,0.353-1.144c0.246-0.345,0.591-0.617,1.035-0.816c0.454-0.199,0.985-0.299,1.592-0.299
	c0.898,0,1.615,0.227,2.149,0.681c0.536,0.443,0.83,1.046,0.885,1.81h-1.823c-0.026-0.3-0.153-0.535-0.381-0.708
	c-0.217-0.181-0.512-0.271-0.885-0.271c-0.343,0-0.612,0.063-0.802,0.189c-0.183,0.128-0.273,0.305-0.273,0.53
	c0,0.255,0.127,0.45,0.381,0.586c0.255,0.127,0.649,0.259,1.185,0.395c0.545,0.136,0.994,0.277,1.347,0.423
	c0.355,0.144,0.658,0.372,0.912,0.679c0.264,0.301,0.399,0.699,0.408,1.197c0,0.437-0.123,0.826-0.367,1.172
	c-0.235,0.345-0.581,0.616-1.034,0.816C158.819,203.458,158.298,203.554,157.698,203.554z M164.448,197.456v3.647
	c0,0.254,0.059,0.44,0.177,0.559c0.127,0.108,0.335,0.163,0.625,0.163h0.885v1.606h-1.197c-1.606,0-2.408-0.781-2.408-2.342v-3.634
	h-0.898v-1.564h0.898v-1.864h1.919v1.864h1.687v1.564H164.448z M169.41,197.063c0.245-0.399,0.563-0.713,0.953-0.939
	c0.398-0.226,0.853-0.34,1.359-0.34v2.001h-0.503c-0.599,0-1.052,0.14-1.36,0.421c-0.3,0.281-0.449,0.771-0.449,1.469v3.758h-1.906
	v-7.54h1.906V197.063z M180.124,195.892v7.54h-1.919v-0.954c-0.246,0.327-0.567,0.585-0.967,0.776
	c-0.391,0.182-0.816,0.271-1.279,0.271c-0.589,0-1.111-0.123-1.565-0.367c-0.453-0.254-0.812-0.621-1.075-1.103
	c-0.253-0.489-0.381-1.071-0.381-1.74v-4.424h1.905v4.149c0,0.601,0.151,1.063,0.449,1.39c0.3,0.316,0.709,0.476,1.225,0.476
	c0.527,0,0.94-0.159,1.238-0.476c0.299-0.327,0.45-0.789,0.45-1.39v-4.149H180.124z M181.514,199.661
	c0-0.78,0.159-1.461,0.476-2.041c0.317-0.589,0.758-1.043,1.32-1.361c0.563-0.325,1.206-0.489,1.934-0.489
	c0.934,0,1.705,0.235,2.313,0.707c0.616,0.464,1.029,1.115,1.237,1.96h-2.054c-0.109-0.326-0.295-0.58-0.558-0.763
	c-0.254-0.189-0.571-0.285-0.952-0.285c-0.546,0-0.976,0.199-1.294,0.6c-0.317,0.389-0.477,0.947-0.477,1.673
	c0,0.717,0.159,1.274,0.477,1.674c0.318,0.391,0.748,0.586,1.294,0.586c0.771,0,1.273-0.346,1.51-1.034h2.054
	c-0.208,0.815-0.621,1.464-1.237,1.945c-0.617,0.48-1.388,0.722-2.313,0.722c-0.728,0-1.371-0.159-1.934-0.478
	c-0.563-0.326-1.003-0.779-1.32-1.36C181.673,201.127,181.514,200.442,181.514,199.661z M192.408,197.456v3.647
	c0,0.254,0.058,0.44,0.177,0.559c0.126,0.108,0.335,0.163,0.625,0.163h0.886v1.606h-1.198c-1.606,0-2.408-0.781-2.408-2.342v-3.634
	h-0.898v-1.564h0.898v-1.864h1.919v1.864h1.688v1.564H192.408z M196.432,194.994c-0.337,0-0.616-0.104-0.845-0.313
	c-0.217-0.219-0.326-0.485-0.326-0.803c0-0.318,0.109-0.581,0.326-0.789c0.229-0.219,0.508-0.327,0.845-0.327
	c0.336,0,0.611,0.108,0.83,0.327c0.226,0.208,0.34,0.471,0.34,0.789c0,0.317-0.114,0.584-0.34,0.803
	C197.043,194.89,196.768,194.994,196.432,194.994z M197.37,195.892v7.54h-1.906v-7.54H197.37z M202.6,203.554
	c-0.726,0-1.378-0.159-1.96-0.478c-0.58-0.326-1.039-0.784-1.373-1.374c-0.327-0.59-0.49-1.27-0.49-2.041
	c0-0.771,0.167-1.452,0.503-2.041c0.345-0.589,0.812-1.043,1.402-1.361c0.589-0.325,1.247-0.489,1.972-0.489
	c0.728,0,1.384,0.164,1.975,0.489c0.589,0.318,1.051,0.772,1.388,1.361c0.345,0.589,0.518,1.271,0.518,2.041
	c0,0.771-0.178,1.451-0.532,2.041c-0.344,0.59-0.815,1.048-1.414,1.374C203.997,203.395,203.334,203.554,202.6,203.554z
	 M202.6,201.893c0.346,0,0.667-0.081,0.967-0.244c0.309-0.173,0.553-0.426,0.734-0.762c0.181-0.337,0.272-0.745,0.272-1.226
	c0-0.717-0.19-1.265-0.571-1.646c-0.373-0.392-0.83-0.586-1.374-0.586c-0.545,0-1.003,0.194-1.375,0.586
	c-0.363,0.382-0.545,0.93-0.545,1.646s0.177,1.271,0.531,1.66C201.602,201.702,202.056,201.893,202.6,201.893z M212.107,195.783
	c0.898,0,1.625,0.285,2.178,0.856c0.554,0.563,0.83,1.352,0.83,2.368v4.424h-1.906v-4.165c0-0.6-0.148-1.058-0.448-1.374
	c-0.299-0.326-0.706-0.49-1.225-0.49c-0.525,0-0.942,0.164-1.251,0.49c-0.301,0.316-0.449,0.774-0.449,1.374v4.165h-1.906v-7.54
	h1.906v0.938c0.254-0.326,0.576-0.58,0.966-0.762C211.2,195.878,211.636,195.783,212.107,195.783z"/>
<circle fill="#00666A" cx="123.74" cy="84.204" r="76.545"/>
<path fill="#EBEBEB" d="M145.529,10.585l-8.24,18.276c20.328,4.797,35.678,23.99,39.905,34.886l16.795-10.151
	C181.55,25.79,157.021,13.404,145.529,10.585z"/>
<circle fill="#FFFFFF" cx="123.74" cy="84.203" r="58.855"/>
<path d="M112.553,65.915l-6.033,14.13h-3.22l6.078-13.767h-7.756v-2.722h10.931V65.915z M125.568,66.256h-7.349v3.878
	c0.317-0.393,0.771-0.711,1.361-0.952c0.59-0.257,1.217-0.386,1.883-0.386c1.209,0,2.2,0.265,2.971,0.794
	c0.771,0.529,1.33,1.209,1.678,2.041c0.348,0.816,0.521,1.693,0.521,2.631c0,1.738-0.498,3.138-1.496,4.195
	c-0.983,1.059-2.389,1.588-4.219,1.588c-1.724,0-3.1-0.431-4.127-1.293c-1.028-0.862-1.611-1.988-1.747-3.38h3.084
	c0.137,0.605,0.439,1.089,0.908,1.452c0.483,0.363,1.097,0.544,1.837,0.544c0.892,0,1.565-0.279,2.019-0.839
	c0.454-0.56,0.68-1.3,0.68-2.222c0-0.938-0.234-1.648-0.703-2.132c-0.453-0.499-1.126-0.749-2.019-0.749
	c-0.634,0-1.164,0.159-1.587,0.477c-0.423,0.317-0.726,0.741-0.907,1.271h-3.039v-9.708h10.251V66.256z M128.688,67.572
	c0-1.149,0.333-2.049,0.998-2.699c0.68-0.65,1.551-0.976,2.607-0.976c1.058,0,1.921,0.326,2.586,0.976
	c0.681,0.65,1.021,1.549,1.021,2.699c0,1.164-0.34,2.071-1.021,2.721c-0.665,0.651-1.528,0.976-2.586,0.976
	c-1.057,0-1.928-0.325-2.607-0.976C129.021,69.642,128.688,68.736,128.688,67.572z M143.248,64.169l-8.913,15.876h-3.084
	l8.89-15.876H143.248z M132.271,65.802c-0.832,0-1.248,0.589-1.248,1.769c0,1.194,0.416,1.792,1.248,1.792
	c0.408,0,0.725-0.144,0.951-0.431c0.228-0.303,0.341-0.756,0.341-1.361C133.563,66.392,133.134,65.802,132.271,65.802z
	 M138.643,76.621c0-1.165,0.334-2.064,0.999-2.7c0.681-0.649,1.55-0.975,2.607-0.975c1.059,0,1.915,0.326,2.563,0.975
	c0.666,0.635,0.998,1.535,0.998,2.7c0,1.164-0.332,2.071-0.998,2.721c-0.648,0.65-1.505,0.975-2.563,0.975
	c-1.073,0-1.941-0.325-2.607-0.975C138.977,78.692,138.643,77.785,138.643,76.621z M142.228,74.852c-0.861,0-1.294,0.59-1.294,1.769
	c0,1.194,0.433,1.792,1.294,1.792c0.847,0,1.271-0.598,1.271-1.792C143.498,75.442,143.074,74.852,142.228,74.852z M85.891,99.26
	c0-0.823,0.186-1.561,0.557-2.214c0.371-0.661,0.875-1.176,1.512-1.548c0.645-0.372,1.358-0.556,2.141-0.556
	c0.919,0,1.722,0.222,2.407,0.665c0.686,0.444,1.186,1.073,1.5,1.887h-1.319c-0.234-0.509-0.572-0.899-1.016-1.174
	c-0.435-0.274-0.959-0.411-1.572-0.411c-0.589,0-1.117,0.137-1.584,0.411c-0.467,0.274-0.834,0.665-1.101,1.174
	c-0.267,0.499-0.399,1.088-0.399,1.766c0,0.669,0.133,1.258,0.399,1.767c0.266,0.5,0.633,0.886,1.101,1.162
	c0.467,0.273,0.996,0.411,1.584,0.411c0.613,0,1.137-0.134,1.572-0.399c0.444-0.275,0.782-0.666,1.016-1.173h1.319
	c-0.315,0.806-0.815,1.43-1.5,1.875c-0.685,0.435-1.487,0.653-2.407,0.653c-0.782,0-1.496-0.181-2.141-0.544
	c-0.638-0.371-1.141-0.883-1.512-1.536C86.077,100.82,85.891,100.082,85.891,99.26z M100.436,103.566
	c-0.782,0-1.496-0.181-2.141-0.544c-0.645-0.372-1.157-0.883-1.536-1.537c-0.372-0.661-0.557-1.403-0.557-2.226
	s0.185-1.561,0.557-2.214c0.378-0.661,0.891-1.173,1.536-1.536c0.645-0.371,1.359-0.557,2.141-0.557
	c0.791,0,1.508,0.186,2.153,0.557c0.646,0.363,1.153,0.871,1.524,1.524c0.371,0.653,0.556,1.395,0.556,2.226
	c0,0.831-0.186,1.573-0.556,2.226c-0.371,0.653-0.879,1.165-1.524,1.537C101.944,103.385,101.227,103.566,100.436,103.566z
	 M100.436,102.611c0.588,0,1.117-0.137,1.584-0.412c0.476-0.275,0.847-0.666,1.113-1.173c0.274-0.508,0.411-1.097,0.411-1.767
	c0-0.677-0.137-1.267-0.411-1.766c-0.267-0.509-0.633-0.899-1.102-1.174c-0.467-0.274-1-0.411-1.596-0.411
	c-0.597,0-1.129,0.137-1.597,0.411c-0.467,0.274-0.838,0.665-1.112,1.174c-0.266,0.499-0.399,1.088-0.399,1.766
	c0,0.669,0.133,1.258,0.399,1.767c0.274,0.507,0.645,0.898,1.112,1.173C99.315,102.474,99.847,102.611,100.436,102.611z
	 M115.643,95.111v8.371h-1.102V97.24l-2.782,6.241h-0.774l-2.794-6.254v6.254h-1.101v-8.371h1.185l3.097,6.919l3.097-6.919H115.643z
	 M124.113,97.517c0,0.702-0.241,1.286-0.725,1.754c-0.477,0.46-1.206,0.689-2.189,0.689h-1.621v3.52h-1.101v-8.431h2.722
	c0.951,0,1.673,0.229,2.165,0.689C123.863,96.2,124.113,96.792,124.113,97.517z M121.199,99.054c0.612,0,1.064-0.133,1.354-0.399
	c0.291-0.266,0.436-0.645,0.436-1.137c0-1.04-0.597-1.56-1.79-1.56h-1.621v3.097H121.199z M127.551,102.586h2.95v0.895h-4.053
	v-8.431h1.103V102.586z M133.738,95.945v2.819h3.072v0.908h-3.072v2.903h3.436v0.907h-4.536v-8.443h4.536v0.906H133.738z
	 M144.996,95.051v0.894h-2.298v7.537h-1.101v-7.537h-2.31v-0.894H144.996z M148.42,95.945v2.819h3.072v0.908h-3.072v2.903h3.436
	v0.907h-4.536v-8.443h4.536v0.906H148.42z M157.113,95.051c0.918,0,1.713,0.173,2.382,0.52c0.679,0.338,1.195,0.826,1.55,1.463
	c0.362,0.637,0.544,1.387,0.544,2.25c0,0.863-0.182,1.613-0.544,2.25c-0.354,0.63-0.871,1.113-1.55,1.452
	c-0.669,0.33-1.464,0.496-2.382,0.496h-2.624v-8.431H157.113z M157.113,102.574c1.089,0,1.92-0.287,2.492-0.859
	c0.571-0.581,0.858-1.392,0.858-2.432c0-1.049-0.29-1.866-0.871-2.455c-0.572-0.589-1.399-0.884-2.479-0.884h-1.524v6.63H157.113z"
	/>
<path fill="#00666A" d="M92.153,249.472l-2.368,6.306h-1.198l-2.377-6.306h1.107l1.869,5.244l1.878-5.244H92.153z M93.544,250.117
	c-0.188,0-0.346-0.063-0.472-0.191c-0.127-0.128-0.191-0.284-0.191-0.472s0.064-0.344,0.191-0.472
	c0.126-0.127,0.285-0.191,0.472-0.191c0.181,0,0.335,0.064,0.462,0.191c0.126,0.128,0.19,0.284,0.19,0.472s-0.063,0.344-0.19,0.472
	C93.879,250.054,93.725,250.117,93.544,250.117z M94.052,250.78v4.998h-1.034v-4.998H94.052z M99.991,253.156
	c0,0.187-0.012,0.355-0.036,0.507h-3.82c0.031,0.4,0.179,0.72,0.445,0.962c0.266,0.241,0.593,0.363,0.98,0.363
	c0.557,0,0.949-0.233,1.179-0.699h1.115c-0.151,0.46-0.426,0.838-0.825,1.135c-0.393,0.289-0.883,0.435-1.469,0.435
	c-0.478,0-0.907-0.105-1.288-0.316c-0.375-0.219-0.672-0.521-0.89-0.908c-0.212-0.394-0.318-0.847-0.318-1.36
	s0.104-0.964,0.309-1.352c0.212-0.394,0.505-0.696,0.88-0.908c0.381-0.212,0.816-0.316,1.307-0.316c0.472,0,0.892,0.103,1.261,0.308
	c0.369,0.205,0.656,0.496,0.862,0.87C99.888,252.245,99.991,252.672,99.991,253.156z M98.912,252.829
	c-0.007-0.382-0.143-0.687-0.409-0.917c-0.266-0.229-0.596-0.344-0.989-0.344c-0.357,0-0.663,0.114-0.916,0.344
	c-0.254,0.225-0.406,0.529-0.454,0.917H98.912z M107.722,250.78l-1.551,4.998h-1.088l-1.007-3.693l-1.007,3.693h-1.089l-1.561-4.998
	h1.053l1.043,4.018l1.061-4.018h1.08l1.016,4l1.035-4H107.722z M114.653,254.489h-2.64l-0.454,1.289h-1.08l2.259-6.314h1.197
	l2.259,6.314h-1.088L114.653,254.489z M114.362,253.646l-1.025-2.931l-1.034,2.931H114.362z M118.211,249.065v6.713h-1.034v-6.713
	H118.211z M120.604,249.065v6.713h-1.035v-6.713H120.604z M128.727,251.351c0,0.32-0.074,0.622-0.227,0.907
	c-0.151,0.284-0.394,0.517-0.726,0.698c-0.333,0.175-0.759,0.263-1.278,0.263h-1.145v2.559h-1.033v-6.306h2.178
	c0.483,0,0.892,0.085,1.224,0.255c0.338,0.163,0.589,0.387,0.753,0.67C128.642,250.682,128.727,250.999,128.727,251.351z
	 M126.496,252.375c0.393,0,0.685-0.088,0.879-0.263c0.193-0.182,0.291-0.436,0.291-0.762c0-0.689-0.391-1.035-1.17-1.035h-1.145
	v2.06H126.496z M130.748,251.504c0.15-0.254,0.35-0.45,0.599-0.589c0.254-0.146,0.554-0.218,0.897-0.218v1.07h-0.263
	c-0.404,0-0.713,0.103-0.926,0.309c-0.206,0.204-0.308,0.562-0.308,1.07v2.631h-1.035v-4.998h1.035V251.504z M135.363,255.859
	c-0.472,0-0.898-0.105-1.279-0.316c-0.381-0.219-0.681-0.521-0.898-0.908c-0.218-0.394-0.326-0.847-0.326-1.36
	c0-0.508,0.112-0.96,0.336-1.352c0.223-0.394,0.527-0.696,0.916-0.908c0.387-0.212,0.818-0.316,1.297-0.316
	c0.478,0,0.91,0.104,1.298,0.316c0.387,0.212,0.692,0.515,0.915,0.908c0.226,0.392,0.336,0.844,0.336,1.352
	s-0.114,0.958-0.345,1.352c-0.229,0.393-0.544,0.698-0.943,0.917C136.276,255.753,135.842,255.859,135.363,255.859z M135.363,254.96
	c0.266,0,0.514-0.063,0.744-0.189c0.235-0.127,0.426-0.318,0.57-0.573c0.146-0.252,0.219-0.562,0.219-0.924
	s-0.069-0.669-0.209-0.916c-0.14-0.254-0.323-0.445-0.554-0.572c-0.229-0.127-0.478-0.19-0.743-0.19
	c-0.267,0-0.515,0.063-0.743,0.19c-0.226,0.127-0.403,0.318-0.536,0.572c-0.134,0.247-0.199,0.554-0.199,0.916
	c0,0.538,0.135,0.955,0.408,1.251C134.599,254.816,134.945,254.96,135.363,254.96z M139.505,250.117
	c-0.187,0-0.343-0.063-0.471-0.191c-0.127-0.128-0.191-0.284-0.191-0.472s0.064-0.344,0.191-0.472
	c0.128-0.127,0.284-0.191,0.471-0.191c0.183,0,0.337,0.064,0.463,0.191c0.127,0.128,0.19,0.284,0.19,0.472s-0.063,0.344-0.19,0.472
	C139.842,250.054,139.688,250.117,139.505,250.117z M140.014,256.757c0,0.49-0.123,0.844-0.372,1.061
	c-0.242,0.226-0.595,0.337-1.062,0.337h-0.534v-0.872h0.353c0.212,0,0.359-0.041,0.444-0.127c0.092-0.078,0.137-0.212,0.137-0.398
	v-5.978h1.034V256.757z M145.952,253.156c0,0.187-0.012,0.355-0.034,0.507h-3.82c0.029,0.4,0.179,0.72,0.443,0.962
	c0.267,0.241,0.594,0.363,0.98,0.363c0.557,0,0.95-0.233,1.18-0.699h1.115c-0.15,0.46-0.426,0.838-0.825,1.135
	c-0.393,0.289-0.883,0.435-1.47,0.435c-0.479,0-0.908-0.105-1.288-0.316c-0.376-0.219-0.671-0.521-0.89-0.908
	c-0.21-0.394-0.316-0.847-0.316-1.36s0.103-0.964,0.309-1.352c0.211-0.394,0.505-0.696,0.879-0.908
	c0.382-0.212,0.816-0.316,1.307-0.316c0.472,0,0.893,0.103,1.261,0.308c0.37,0.205,0.656,0.496,0.862,0.87
	C145.851,252.245,145.952,252.672,145.952,253.156z M144.873,252.829c-0.006-0.382-0.141-0.687-0.407-0.917
	c-0.267-0.229-0.596-0.344-0.989-0.344c-0.357,0-0.661,0.114-0.916,0.344c-0.254,0.225-0.405,0.529-0.454,0.917H144.873z
	 M146.627,253.274c0-0.514,0.102-0.964,0.308-1.352c0.213-0.394,0.502-0.696,0.871-0.908s0.792-0.316,1.27-0.316
	c0.605,0,1.104,0.145,1.497,0.435c0.4,0.285,0.67,0.692,0.809,1.226h-1.116c-0.091-0.249-0.236-0.441-0.437-0.581
	c-0.199-0.139-0.451-0.208-0.753-0.208c-0.423,0-0.762,0.15-1.015,0.453c-0.248,0.295-0.373,0.713-0.373,1.252
	c0,0.538,0.125,0.958,0.373,1.261c0.253,0.303,0.592,0.454,1.015,0.454c0.6,0,0.996-0.263,1.189-0.791h1.116
	c-0.146,0.509-0.418,0.914-0.817,1.217c-0.399,0.297-0.896,0.444-1.488,0.444c-0.478,0-0.9-0.105-1.27-0.316
	c-0.369-0.219-0.658-0.521-0.871-0.908C146.729,254.24,146.627,253.787,146.627,253.274z M153.617,251.622v2.768
	c0,0.187,0.043,0.323,0.127,0.407c0.092,0.08,0.243,0.118,0.454,0.118h0.634v0.862h-0.816c-0.465,0-0.822-0.108-1.07-0.327
	c-0.248-0.217-0.371-0.571-0.371-1.061v-2.768h-0.59v-0.843h0.59v-1.244h1.043v1.244h1.215v0.843H153.617z M157.602,255.859
	c-0.395,0-0.748-0.069-1.063-0.208c-0.309-0.145-0.554-0.34-0.734-0.581c-0.182-0.248-0.278-0.523-0.291-0.825h1.071
	c0.018,0.211,0.117,0.39,0.298,0.535c0.188,0.139,0.421,0.209,0.698,0.209c0.291,0,0.516-0.055,0.673-0.164
	c0.163-0.114,0.245-0.26,0.245-0.435c0-0.188-0.092-0.326-0.272-0.418c-0.175-0.091-0.456-0.19-0.845-0.3
	c-0.374-0.103-0.68-0.202-0.914-0.299c-0.237-0.097-0.442-0.245-0.617-0.444c-0.171-0.2-0.255-0.463-0.255-0.789
	c0-0.267,0.079-0.509,0.235-0.727c0.157-0.223,0.381-0.399,0.672-0.526c0.296-0.127,0.635-0.189,1.016-0.189
	c0.569,0,1.026,0.145,1.37,0.435c0.352,0.285,0.539,0.675,0.563,1.171h-1.034c-0.019-0.224-0.108-0.402-0.272-0.535
	c-0.162-0.134-0.384-0.199-0.661-0.199c-0.273,0-0.482,0.05-0.626,0.154c-0.146,0.102-0.219,0.238-0.219,0.408
	c0,0.133,0.048,0.244,0.146,0.335c0.096,0.09,0.215,0.163,0.354,0.218c0.14,0.049,0.346,0.112,0.617,0.19
	c0.362,0.097,0.659,0.196,0.889,0.299c0.236,0.097,0.439,0.243,0.608,0.437s0.256,0.45,0.263,0.771c0,0.285-0.078,0.538-0.235,0.762
	s-0.382,0.4-0.671,0.527C158.323,255.795,157.987,255.859,157.602,255.859z M163.324,250.444h1.307l2.087,2.059l-2.087,2.061h-1.307
	l2.095-2.061L163.324,250.444z"/>
<path fill="#4F4F4F" d="M97.833,180.104c0,0.32-0.075,0.623-0.227,0.907c-0.151,0.284-0.393,0.517-0.725,0.698
	c-0.333,0.176-0.76,0.263-1.28,0.263h-1.143v2.56h-1.035v-6.305h2.178c0.484,0,0.892,0.084,1.225,0.253
	c0.339,0.163,0.59,0.388,0.753,0.672C97.749,179.436,97.833,179.752,97.833,180.104z M95.602,181.129
	c0.393,0,0.687-0.088,0.88-0.264c0.194-0.18,0.291-0.435,0.291-0.762c0-0.689-0.39-1.034-1.17-1.034h-1.143v2.06H95.602z
	 M99.854,180.258c0.151-0.254,0.35-0.45,0.599-0.591c0.254-0.144,0.553-0.217,0.898-0.217v1.071h-0.263
	c-0.405,0-0.714,0.102-0.925,0.308c-0.206,0.206-0.309,0.563-0.309,1.07v2.632H98.82v-4.999h1.035V180.258z M104.47,184.613
	c-0.472,0-0.898-0.106-1.279-0.318c-0.381-0.217-0.681-0.52-0.898-0.906c-0.218-0.394-0.327-0.847-0.327-1.361
	c0-0.508,0.112-0.958,0.335-1.352c0.224-0.394,0.53-0.695,0.917-0.907c0.387-0.212,0.819-0.317,1.297-0.317
	c0.479,0,0.911,0.105,1.298,0.317s0.692,0.514,0.917,0.907c0.223,0.394,0.335,0.844,0.335,1.352s-0.114,0.959-0.345,1.353
	c-0.23,0.393-0.544,0.698-0.943,0.915C105.383,184.506,104.947,184.613,104.47,184.613z M104.47,183.715
	c0.266,0,0.514-0.064,0.744-0.191c0.236-0.127,0.427-0.317,0.572-0.571s0.218-0.562,0.218-0.926c0-0.362-0.07-0.668-0.209-0.917
	c-0.139-0.253-0.324-0.443-0.554-0.57c-0.23-0.128-0.478-0.19-0.744-0.19c-0.267,0-0.514,0.063-0.744,0.19
	c-0.224,0.127-0.402,0.317-0.535,0.57c-0.133,0.249-0.2,0.555-0.2,0.917c0,0.539,0.136,0.956,0.409,1.252
	C103.705,183.569,104.052,183.715,104.47,183.715z M108.613,178.869c-0.188,0-0.345-0.063-0.472-0.19
	c-0.127-0.126-0.191-0.284-0.191-0.472c0-0.187,0.063-0.345,0.191-0.472c0.126-0.126,0.284-0.19,0.472-0.19
	c0.182,0,0.335,0.064,0.463,0.19c0.127,0.127,0.19,0.285,0.19,0.472c0,0.188-0.063,0.346-0.19,0.472
	C108.948,178.806,108.794,178.869,108.613,178.869z M109.121,185.511c0,0.489-0.125,0.843-0.372,1.061
	c-0.242,0.225-0.596,0.336-1.061,0.336h-0.535v-0.87h0.353c0.211,0,0.36-0.043,0.444-0.128c0.091-0.078,0.137-0.211,0.137-0.398
	v-5.979h1.034V185.511z M115.06,181.908c0,0.188-0.012,0.357-0.037,0.509h-3.819c0.031,0.398,0.179,0.72,0.445,0.962
	c0.266,0.242,0.593,0.362,0.979,0.362c0.557,0,0.95-0.232,1.18-0.699h1.116c-0.151,0.461-0.427,0.839-0.825,1.135
	c-0.394,0.291-0.883,0.436-1.47,0.436c-0.478,0-0.907-0.106-1.289-0.318c-0.374-0.217-0.671-0.52-0.889-0.906
	c-0.211-0.394-0.318-0.847-0.318-1.361c0-0.514,0.103-0.965,0.309-1.352c0.212-0.394,0.505-0.695,0.88-0.907
	c0.381-0.212,0.817-0.317,1.307-0.317c0.472,0,0.892,0.103,1.261,0.309c0.369,0.206,0.656,0.496,0.862,0.871
	C114.957,180.999,115.06,181.426,115.06,181.908z M113.98,181.582c-0.006-0.381-0.142-0.687-0.408-0.916s-0.596-0.346-0.989-0.346
	c-0.357,0-0.663,0.116-0.917,0.346c-0.254,0.224-0.405,0.529-0.454,0.916H113.98z M115.732,182.027c0-0.514,0.103-0.965,0.309-1.352
	c0.212-0.394,0.502-0.695,0.871-0.907c0.369-0.212,0.792-0.317,1.27-0.317c0.605,0,1.104,0.146,1.497,0.436
	c0.399,0.283,0.668,0.692,0.807,1.224h-1.116c-0.091-0.247-0.236-0.44-0.436-0.58c-0.199-0.139-0.45-0.209-0.753-0.209
	c-0.424,0-0.762,0.152-1.017,0.454c-0.247,0.297-0.372,0.714-0.372,1.252c0,0.539,0.125,0.959,0.372,1.261
	c0.254,0.304,0.593,0.454,1.017,0.454c0.599,0,0.995-0.263,1.188-0.789h1.116c-0.146,0.509-0.417,0.914-0.816,1.216
	c-0.399,0.296-0.895,0.444-1.488,0.444c-0.478,0-0.901-0.106-1.27-0.318c-0.369-0.217-0.659-0.52-0.871-0.906
	C115.835,182.994,115.732,182.541,115.732,182.027z M122.724,180.376v2.767c0,0.188,0.042,0.323,0.127,0.409
	c0.091,0.078,0.242,0.117,0.454,0.117h0.636v0.862h-0.817c-0.466,0-0.823-0.11-1.071-0.327c-0.248-0.219-0.372-0.571-0.372-1.062
	v-2.767h-0.589v-0.844h0.589v-1.243h1.043v1.243h1.216v0.844H122.724z M132.43,184.531h-1.034l-3.111-4.708v4.708h-1.035v-6.314
	h1.035l3.111,4.698v-4.698h1.034V184.531z M133.443,182.009c0-0.502,0.102-0.947,0.309-1.334c0.211-0.387,0.494-0.686,0.852-0.897
	c0.363-0.218,0.762-0.327,1.197-0.327c0.394,0,0.736,0.079,1.026,0.236c0.295,0.151,0.532,0.342,0.707,0.571v-0.726h1.044v4.999
	h-1.044v-0.744c-0.175,0.235-0.415,0.432-0.717,0.59c-0.302,0.157-0.646,0.235-1.033,0.235c-0.431,0-0.823-0.109-1.181-0.326
	c-0.357-0.224-0.641-0.532-0.852-0.926C133.545,182.961,133.443,182.511,133.443,182.009z M137.534,182.027
	c0-0.345-0.073-0.643-0.218-0.897c-0.139-0.254-0.323-0.447-0.554-0.581c-0.229-0.133-0.477-0.199-0.744-0.199
	c-0.267,0-0.513,0.066-0.743,0.199c-0.23,0.127-0.417,0.317-0.563,0.571c-0.139,0.249-0.209,0.545-0.209,0.89
	s0.07,0.646,0.209,0.906c0.146,0.261,0.332,0.461,0.563,0.6c0.235,0.133,0.484,0.2,0.743,0.2c0.268,0,0.515-0.067,0.744-0.2
	c0.23-0.134,0.415-0.328,0.554-0.58C137.461,182.674,137.534,182.371,137.534,182.027z M145.986,179.45
	c0.395,0,0.744,0.082,1.053,0.245c0.314,0.163,0.561,0.405,0.736,0.726c0.18,0.32,0.271,0.708,0.271,1.161v2.949h-1.024v-2.795
	c0-0.447-0.112-0.79-0.336-1.025c-0.223-0.241-0.529-0.362-0.916-0.362c-0.388,0-0.696,0.121-0.926,0.362
	c-0.224,0.235-0.336,0.578-0.336,1.025v2.795h-1.025v-2.795c0-0.447-0.111-0.79-0.336-1.025c-0.222-0.241-0.528-0.362-0.915-0.362
	c-0.388,0-0.695,0.121-0.926,0.362c-0.224,0.235-0.335,0.578-0.335,1.025v2.795h-1.035v-4.999h1.035v0.571
	c0.168-0.205,0.384-0.365,0.644-0.481c0.26-0.115,0.538-0.172,0.834-0.172c0.399,0,0.757,0.085,1.07,0.253
	c0.315,0.171,0.558,0.415,0.728,0.737c0.15-0.304,0.387-0.542,0.707-0.718C145.273,179.54,145.618,179.45,145.986,179.45z
	 M153.943,181.908c0,0.188-0.012,0.357-0.036,0.509h-3.818c0.029,0.398,0.179,0.72,0.443,0.962c0.267,0.242,0.594,0.362,0.98,0.362
	c0.557,0,0.948-0.232,1.179-0.699h1.116c-0.151,0.461-0.426,0.839-0.825,1.135c-0.394,0.291-0.883,0.436-1.47,0.436
	c-0.479,0-0.908-0.106-1.288-0.318c-0.376-0.217-0.671-0.52-0.89-0.906c-0.211-0.394-0.316-0.847-0.316-1.361
	c0-0.514,0.102-0.965,0.309-1.352c0.211-0.394,0.504-0.695,0.879-0.907c0.382-0.212,0.816-0.317,1.307-0.317
	c0.472,0,0.893,0.103,1.261,0.309c0.369,0.206,0.657,0.496,0.862,0.871C153.842,180.999,153.943,181.426,153.943,181.908z
	 M152.864,181.582c-0.006-0.381-0.142-0.687-0.408-0.916s-0.596-0.346-0.988-0.346c-0.357,0-0.663,0.116-0.917,0.346
	c-0.254,0.224-0.404,0.529-0.453,0.916H152.864z"/>
<path fill="#4F4F4F" d="M41.07,221.882c-0.423,0-0.804-0.073-1.143-0.218c-0.338-0.151-0.604-0.363-0.798-0.636
	c-0.194-0.271-0.291-0.589-0.291-0.952h1.106c0.024,0.272,0.13,0.496,0.318,0.67c0.193,0.177,0.462,0.265,0.807,0.265
	c0.357,0,0.636-0.085,0.835-0.254c0.199-0.176,0.299-0.399,0.299-0.672c0-0.211-0.063-0.384-0.19-0.517
	c-0.121-0.134-0.275-0.236-0.462-0.309c-0.182-0.073-0.436-0.152-0.762-0.236c-0.412-0.109-0.747-0.217-1.007-0.326
	c-0.253-0.114-0.472-0.291-0.653-0.526c-0.182-0.235-0.272-0.55-0.272-0.943c0-0.363,0.091-0.681,0.272-0.953
	c0.181-0.271,0.435-0.481,0.762-0.625c0.327-0.146,0.705-0.218,1.134-0.218c0.611,0,1.11,0.153,1.497,0.462
	c0.394,0.303,0.611,0.72,0.654,1.252h-1.144c-0.018-0.229-0.127-0.426-0.326-0.59c-0.2-0.163-0.463-0.243-0.79-0.243
	c-0.297,0-0.539,0.074-0.726,0.226c-0.188,0.15-0.281,0.369-0.281,0.653c0,0.192,0.058,0.354,0.173,0.48
	c0.121,0.121,0.272,0.218,0.454,0.29c0.181,0.072,0.429,0.152,0.743,0.236c0.418,0.114,0.756,0.229,1.017,0.344
	c0.266,0.115,0.49,0.294,0.671,0.535c0.188,0.237,0.282,0.555,0.282,0.954c0,0.32-0.088,0.622-0.263,0.907
	c-0.169,0.284-0.42,0.514-0.753,0.688C41.905,221.798,41.518,221.882,41.07,221.882z M45.675,217.663v2.767
	c0,0.188,0.042,0.324,0.127,0.408c0.09,0.079,0.241,0.118,0.453,0.118h0.635v0.86h-0.817c-0.465,0-0.822-0.107-1.07-0.325
	c-0.248-0.217-0.372-0.571-0.372-1.062v-2.767h-0.59v-0.844h0.59v-1.243h1.043v1.243h1.215v0.844H45.675z M47.499,219.296
	c0-0.502,0.103-0.946,0.309-1.334c0.211-0.386,0.496-0.687,0.853-0.897c0.363-0.218,0.762-0.327,1.198-0.327
	c0.393,0,0.735,0.079,1.025,0.236c0.296,0.15,0.532,0.342,0.708,0.571v-0.726h1.043v4.997H51.59v-0.743
	c-0.175,0.237-0.414,0.434-0.717,0.591c-0.302,0.157-0.647,0.234-1.034,0.234c-0.429,0-0.823-0.107-1.18-0.325
	c-0.357-0.224-0.642-0.533-0.853-0.926C47.601,220.249,47.499,219.798,47.499,219.296z M51.59,219.315
	c0-0.345-0.072-0.646-0.218-0.899c-0.139-0.254-0.323-0.446-0.553-0.58c-0.23-0.132-0.478-0.199-0.744-0.199
	s-0.514,0.067-0.744,0.199c-0.229,0.127-0.417,0.318-0.562,0.571c-0.139,0.248-0.209,0.544-0.209,0.89
	c0,0.345,0.07,0.647,0.209,0.907c0.145,0.26,0.333,0.46,0.562,0.599c0.236,0.133,0.484,0.2,0.744,0.2c0.266,0,0.514-0.067,0.744-0.2
	c0.23-0.134,0.415-0.326,0.553-0.58C51.518,219.961,51.59,219.658,51.59,219.315z M55.026,217.545
	c0.151-0.254,0.351-0.452,0.598-0.59c0.254-0.146,0.554-0.218,0.899-0.218v1.07H56.26c-0.405,0-0.714,0.104-0.925,0.309
	c-0.206,0.206-0.309,0.563-0.309,1.07v2.63h-1.035v-4.997h1.035V217.545z M58.68,217.663v2.767c0,0.188,0.042,0.324,0.127,0.408
	c0.091,0.079,0.242,0.118,0.454,0.118h0.635v0.86h-0.816c-0.466,0-0.823-0.107-1.07-0.325c-0.249-0.217-0.373-0.571-0.373-1.062
	v-2.767h-0.589v-0.844h0.589v-1.243h1.043v1.243h1.216v0.844H58.68z M63.623,221.882c-0.188,0-0.345-0.065-0.472-0.191
	c-0.127-0.127-0.19-0.284-0.19-0.472s0.063-0.345,0.19-0.473c0.127-0.127,0.284-0.189,0.472-0.189c0.181,0,0.336,0.063,0.463,0.189
	c0.126,0.128,0.19,0.285,0.19,0.473s-0.064,0.345-0.19,0.472C63.958,221.817,63.804,221.882,63.623,221.882z M63.623,218.072
	c-0.188,0-0.345-0.064-0.472-0.191s-0.19-0.284-0.19-0.471c0-0.188,0.063-0.345,0.19-0.473c0.127-0.127,0.284-0.189,0.472-0.189
	c0.181,0,0.336,0.063,0.463,0.189c0.126,0.128,0.19,0.284,0.19,0.473c0,0.187-0.064,0.344-0.19,0.471
	C63.958,218.007,63.804,218.072,63.623,218.072z M67.514,216.149v-0.943H69.4v6.611h-1.043v-5.668H67.514z M71.393,220.412
	c0.581-0.502,1.038-0.913,1.37-1.233c0.339-0.327,0.62-0.665,0.843-1.018c0.225-0.351,0.336-0.7,0.336-1.052
	c0-0.362-0.088-0.647-0.263-0.853c-0.169-0.205-0.438-0.309-0.807-0.309c-0.357,0-0.636,0.115-0.834,0.345
	c-0.194,0.225-0.297,0.526-0.309,0.907h-0.998c0.018-0.689,0.223-1.215,0.616-1.579c0.399-0.368,0.904-0.553,1.515-0.553
	c0.659,0,1.173,0.181,1.542,0.545c0.375,0.362,0.563,0.846,0.563,1.451c0,0.435-0.112,0.855-0.336,1.261
	c-0.217,0.399-0.481,0.76-0.79,1.079c-0.302,0.315-0.689,0.681-1.161,1.098l-0.408,0.362h2.875v0.862h-4.409v-0.752L71.393,220.412z
	 M81.988,215.513v4.546c0,0.561-0.172,1.007-0.517,1.334c-0.339,0.326-0.786,0.489-1.343,0.489s-1.007-0.163-1.352-0.489
	c-0.339-0.327-0.509-0.773-0.509-1.334h1.044c0.006,0.277,0.075,0.498,0.208,0.662c0.139,0.163,0.342,0.244,0.608,0.244
	c0.266,0,0.468-0.081,0.607-0.244c0.14-0.17,0.209-0.391,0.209-0.662v-4.546H81.988z M83.325,219.296
	c0-0.502,0.104-0.946,0.309-1.334c0.212-0.386,0.496-0.687,0.853-0.897c0.363-0.218,0.762-0.327,1.198-0.327
	c0.393,0,0.734,0.079,1.025,0.236c0.296,0.15,0.532,0.342,0.708,0.571v-0.726h1.043v4.997h-1.043v-0.743
	c-0.175,0.237-0.414,0.434-0.716,0.591c-0.303,0.157-0.647,0.234-1.035,0.234c-0.429,0-0.822-0.107-1.179-0.325
	c-0.357-0.224-0.641-0.533-0.853-0.926C83.429,220.249,83.325,219.798,83.325,219.296z M87.417,219.315
	c0-0.345-0.073-0.646-0.218-0.899c-0.139-0.254-0.323-0.446-0.554-0.58c-0.229-0.132-0.478-0.199-0.744-0.199
	s-0.514,0.067-0.743,0.199c-0.23,0.127-0.418,0.318-0.563,0.571c-0.139,0.248-0.208,0.544-0.208,0.89
	c0,0.345,0.069,0.647,0.208,0.907c0.145,0.26,0.333,0.46,0.563,0.599c0.236,0.133,0.483,0.2,0.743,0.2
	c0.266,0,0.515-0.067,0.744-0.2c0.23-0.134,0.415-0.326,0.554-0.58C87.344,219.961,87.417,219.658,87.417,219.315z M92.34,216.738
	c0.393,0,0.744,0.082,1.053,0.245c0.315,0.163,0.56,0.405,0.735,0.727c0.175,0.32,0.263,0.706,0.263,1.16v2.947h-1.025v-2.793
	c0-0.447-0.112-0.788-0.335-1.025c-0.224-0.241-0.529-0.362-0.917-0.362c-0.387,0-0.695,0.121-0.925,0.362
	c-0.225,0.237-0.336,0.578-0.336,1.025v2.793h-1.034v-4.997h1.034v0.571c0.169-0.206,0.384-0.366,0.644-0.48
	C91.763,216.796,92.044,216.738,92.34,216.738z M98.502,220.412c0.581-0.502,1.037-0.913,1.37-1.233
	c0.338-0.327,0.62-0.665,0.843-1.018c0.225-0.351,0.336-0.7,0.336-1.052c0-0.362-0.087-0.647-0.263-0.853
	c-0.169-0.205-0.438-0.309-0.807-0.309c-0.357,0-0.636,0.115-0.835,0.345c-0.193,0.225-0.296,0.526-0.309,0.907H97.84
	c0.018-0.689,0.223-1.215,0.617-1.579c0.399-0.368,0.904-0.553,1.515-0.553c0.66,0,1.174,0.181,1.542,0.545
	c0.375,0.362,0.563,0.846,0.563,1.451c0,0.435-0.112,0.855-0.335,1.261c-0.218,0.399-0.481,0.76-0.79,1.079
	c-0.302,0.315-0.689,0.681-1.161,1.098l-0.408,0.362h2.875v0.862h-4.409v-0.752L98.502,220.412z M103.167,218.425
	c0-1.045,0.176-1.863,0.527-2.449c0.356-0.593,0.967-0.89,1.832-0.89s1.473,0.297,1.824,0.89c0.357,0.586,0.535,1.404,0.535,2.449
	c0,1.058-0.178,1.888-0.535,2.485c-0.351,0.593-0.959,0.891-1.824,0.891s-1.475-0.298-1.832-0.891
	C103.342,220.313,103.167,219.483,103.167,218.425z M106.868,218.425c0-0.489-0.034-0.904-0.1-1.243
	c-0.061-0.337-0.188-0.613-0.381-0.825c-0.193-0.218-0.481-0.326-0.862-0.326c-0.38,0-0.668,0.108-0.861,0.326
	c-0.194,0.212-0.324,0.488-0.39,0.825c-0.061,0.339-0.091,0.754-0.091,1.243c0,0.509,0.03,0.935,0.091,1.279
	c0.061,0.344,0.188,0.623,0.381,0.834c0.2,0.212,0.49,0.319,0.871,0.319c0.381,0,0.669-0.107,0.862-0.319
	c0.199-0.211,0.33-0.49,0.39-0.834C106.837,219.36,106.868,218.934,106.868,218.425z M109.55,220.412
	c0.581-0.502,1.038-0.913,1.37-1.233c0.338-0.327,0.62-0.665,0.844-1.018c0.224-0.351,0.335-0.7,0.335-1.052
	c0-0.362-0.087-0.647-0.263-0.853c-0.169-0.205-0.438-0.309-0.807-0.309c-0.357,0-0.636,0.115-0.835,0.345
	c-0.193,0.225-0.296,0.526-0.309,0.907h-0.998c0.018-0.689,0.223-1.215,0.617-1.579c0.399-0.368,0.904-0.553,1.515-0.553
	c0.66,0,1.174,0.181,1.542,0.545c0.375,0.362,0.563,0.846,0.563,1.451c0,0.435-0.111,0.855-0.336,1.261
	c-0.218,0.399-0.48,0.76-0.789,1.079c-0.302,0.315-0.689,0.681-1.161,1.098l-0.409,0.362h2.876v0.862h-4.409v-0.752L109.55,220.412z
	 M114.785,220.412c0.581-0.502,1.038-0.913,1.371-1.233c0.338-0.327,0.619-0.665,0.843-1.018c0.224-0.351,0.335-0.7,0.335-1.052
	c0-0.362-0.088-0.647-0.263-0.853c-0.169-0.205-0.438-0.309-0.808-0.309c-0.356,0-0.635,0.115-0.834,0.345
	c-0.194,0.225-0.296,0.526-0.309,0.907h-0.998c0.019-0.689,0.224-1.215,0.617-1.579c0.399-0.368,0.904-0.553,1.515-0.553
	c0.659,0,1.173,0.181,1.542,0.545c0.375,0.362,0.563,0.846,0.563,1.451c0,0.435-0.112,0.855-0.335,1.261
	c-0.218,0.399-0.481,0.76-0.789,1.079c-0.302,0.315-0.689,0.681-1.161,1.098l-0.409,0.362h2.876v0.862h-4.409v-0.752
	L114.785,220.412z M125.604,222.843h-1.033v-8.292h1.033V222.843z M132.987,216.348v1.851h2.178v0.843h-2.178v1.934h2.449v0.842
	h-3.483v-6.313h3.483v0.845H132.987z M139.232,216.738c0.393,0,0.744,0.082,1.053,0.245c0.315,0.163,0.561,0.405,0.734,0.727
	c0.175,0.32,0.265,0.706,0.265,1.16v2.947h-1.025v-2.793c0-0.447-0.112-0.788-0.336-1.025c-0.225-0.241-0.529-0.362-0.917-0.362
	c-0.387,0-0.695,0.121-0.925,0.362c-0.225,0.237-0.336,0.578-0.336,1.025v2.793h-1.034v-4.997h1.034v0.571
	c0.169-0.206,0.384-0.366,0.644-0.48C138.655,216.796,138.937,216.738,139.232,216.738z M142.258,219.296
	c0-0.502,0.104-0.946,0.309-1.334c0.211-0.386,0.495-0.687,0.853-0.897c0.363-0.218,0.765-0.327,1.206-0.327
	c0.327,0,0.647,0.072,0.962,0.218c0.32,0.138,0.574,0.327,0.762,0.563v-2.413h1.044v6.712h-1.044v-0.751
	c-0.17,0.241-0.405,0.441-0.708,0.599c-0.295,0.157-0.638,0.234-1.023,0.234c-0.438,0-0.835-0.107-1.198-0.325
	c-0.357-0.224-0.642-0.533-0.853-0.926C142.361,220.249,142.258,219.798,142.258,219.296z M146.349,219.315
	c0-0.345-0.072-0.646-0.218-0.899c-0.139-0.254-0.322-0.446-0.554-0.58c-0.228-0.132-0.477-0.199-0.743-0.199
	c-0.266,0-0.515,0.067-0.744,0.199c-0.229,0.127-0.416,0.318-0.562,0.571c-0.14,0.248-0.209,0.544-0.209,0.89
	c0,0.345,0.069,0.647,0.209,0.907c0.146,0.26,0.332,0.46,0.562,0.599c0.236,0.133,0.484,0.2,0.744,0.2
	c0.267,0,0.516-0.067,0.743-0.2c0.231-0.134,0.415-0.326,0.554-0.58C146.276,219.961,146.349,219.658,146.349,219.315z
	 M151.524,221.882c-0.187,0-0.346-0.065-0.472-0.191c-0.127-0.127-0.19-0.284-0.19-0.472s0.063-0.345,0.19-0.473
	c0.126-0.127,0.285-0.189,0.472-0.189c0.182,0,0.336,0.063,0.463,0.189c0.127,0.128,0.19,0.285,0.19,0.473s-0.063,0.345-0.19,0.472
	C151.86,221.817,151.706,221.882,151.524,221.882z M151.524,218.072c-0.187,0-0.346-0.064-0.472-0.191
	c-0.127-0.127-0.19-0.284-0.19-0.471c0-0.188,0.063-0.345,0.19-0.473c0.126-0.127,0.285-0.189,0.472-0.189
	c0.182,0,0.336,0.063,0.463,0.189c0.127,0.128,0.19,0.284,0.19,0.473c0,0.187-0.063,0.344-0.19,0.471
	S151.706,218.072,151.524,218.072z M156.123,220.412c0.581-0.502,1.038-0.913,1.37-1.233c0.338-0.327,0.619-0.665,0.844-1.018
	c0.224-0.351,0.337-0.7,0.337-1.052c0-0.362-0.09-0.647-0.265-0.853c-0.169-0.205-0.438-0.309-0.807-0.309
	c-0.356,0-0.636,0.115-0.835,0.345c-0.194,0.225-0.296,0.526-0.309,0.907h-0.997c0.019-0.689,0.223-1.215,0.616-1.579
	c0.398-0.368,0.904-0.553,1.515-0.553c0.659,0,1.173,0.181,1.542,0.545c0.375,0.362,0.563,0.846,0.563,1.451
	c0,0.435-0.113,0.855-0.336,1.261c-0.219,0.399-0.48,0.76-0.79,1.079c-0.302,0.315-0.688,0.681-1.16,1.098l-0.409,0.362h2.877v0.862
	h-4.409v-0.752L156.123,220.412z M160.661,220.44v-0.781l3.048-4.371h1.252v4.254h0.845v0.898h-0.845v1.377h-1.017v-1.377H160.661z
	 M163.99,216.338l-2.142,3.203h2.142V216.338z M172.865,215.513v0.844h-2.676v1.859h2.086v0.845h-2.086v2.756h-1.035v-6.304H172.865
	z M178.404,219.197c0,0.188-0.012,0.356-0.037,0.508h-3.818c0.029,0.399,0.178,0.719,0.445,0.961
	c0.266,0.242,0.591,0.363,0.979,0.363c0.556,0,0.949-0.233,1.18-0.698h1.116c-0.152,0.46-0.427,0.837-0.826,1.134
	c-0.394,0.29-0.884,0.435-1.47,0.435c-0.478,0-0.907-0.104-1.288-0.316c-0.375-0.219-0.671-0.521-0.888-0.907
	c-0.213-0.393-0.318-0.847-0.318-1.36c0-0.515,0.102-0.965,0.308-1.353c0.212-0.393,0.506-0.695,0.881-0.907
	c0.381-0.21,0.816-0.317,1.306-0.317c0.473,0,0.893,0.104,1.261,0.309c0.369,0.206,0.656,0.497,0.862,0.871
	C178.301,218.285,178.404,218.713,178.404,219.197z M177.325,218.869c-0.006-0.381-0.143-0.687-0.409-0.916
	c-0.266-0.229-0.596-0.344-0.989-0.344c-0.355,0-0.662,0.114-0.916,0.344c-0.254,0.225-0.404,0.53-0.453,0.916H177.325z
	 M180.456,217.563c0.177-0.241,0.415-0.438,0.717-0.589c0.308-0.157,0.651-0.236,1.025-0.236c0.441,0,0.84,0.107,1.197,0.317
	c0.356,0.212,0.639,0.515,0.844,0.907c0.206,0.388,0.309,0.832,0.309,1.334s-0.103,0.953-0.309,1.352
	c-0.205,0.393-0.489,0.702-0.853,0.926c-0.355,0.218-0.753,0.325-1.188,0.325c-0.387,0-0.731-0.074-1.034-0.226
	c-0.297-0.151-0.531-0.345-0.708-0.581v0.725h-1.033v-6.712h1.033V217.563z M183.495,219.296c0-0.346-0.071-0.642-0.216-0.89
	c-0.141-0.253-0.327-0.444-0.564-0.571c-0.229-0.132-0.477-0.199-0.744-0.199c-0.259,0-0.507,0.067-0.743,0.199
	c-0.229,0.134-0.417,0.326-0.563,0.58c-0.139,0.254-0.209,0.555-0.209,0.899c0,0.344,0.07,0.646,0.209,0.907
	c0.146,0.254,0.333,0.446,0.563,0.58c0.236,0.133,0.484,0.2,0.743,0.2c0.268,0,0.515-0.067,0.744-0.2
	c0.237-0.139,0.424-0.339,0.564-0.599C183.424,219.944,183.495,219.641,183.495,219.296z M188.363,220.412
	c0.581-0.502,1.037-0.913,1.369-1.233c0.339-0.327,0.62-0.665,0.844-1.018c0.224-0.351,0.336-0.7,0.336-1.052
	c0-0.362-0.088-0.647-0.262-0.853c-0.171-0.205-0.439-0.309-0.81-0.309c-0.356,0-0.634,0.115-0.833,0.345
	c-0.193,0.225-0.297,0.526-0.309,0.907h-0.998c0.017-0.689,0.224-1.215,0.617-1.579c0.398-0.368,0.904-0.553,1.515-0.553
	c0.658,0,1.173,0.181,1.541,0.545c0.376,0.362,0.563,0.846,0.563,1.451c0,0.435-0.111,0.855-0.334,1.261
	c-0.219,0.399-0.482,0.76-0.79,1.079c-0.303,0.315-0.689,0.681-1.161,1.098l-0.409,0.362h2.876v0.862h-4.409v-0.752L188.363,220.412
	z M193.026,218.425c0-1.045,0.176-1.863,0.526-2.449c0.356-0.593,0.968-0.89,1.832-0.89c0.865,0,1.473,0.297,1.824,0.89
	c0.356,0.586,0.536,1.404,0.536,2.449c0,1.058-0.18,1.888-0.536,2.485c-0.352,0.593-0.959,0.891-1.824,0.891
	c-0.864,0-1.476-0.298-1.832-0.891C193.202,220.313,193.026,219.483,193.026,218.425z M196.728,218.425
	c0-0.489-0.034-0.904-0.099-1.243c-0.063-0.337-0.189-0.613-0.382-0.825c-0.193-0.218-0.48-0.326-0.862-0.326
	c-0.381,0-0.667,0.108-0.861,0.326c-0.193,0.212-0.324,0.488-0.39,0.825c-0.062,0.339-0.091,0.754-0.091,1.243
	c0,0.509,0.029,0.935,0.091,1.279c0.06,0.344,0.188,0.623,0.381,0.834c0.2,0.212,0.489,0.319,0.87,0.319
	c0.382,0,0.669-0.107,0.862-0.319c0.199-0.211,0.329-0.49,0.39-0.834C196.697,219.36,196.728,218.934,196.728,218.425z
	 M199.409,220.412c0.581-0.502,1.039-0.913,1.371-1.233c0.338-0.327,0.621-0.665,0.844-1.018c0.224-0.351,0.336-0.7,0.336-1.052
	c0-0.362-0.088-0.647-0.265-0.853c-0.168-0.205-0.438-0.309-0.806-0.309c-0.357,0-0.636,0.115-0.835,0.345
	c-0.194,0.225-0.296,0.526-0.309,0.907h-0.998c0.019-0.689,0.224-1.215,0.616-1.579c0.399-0.368,0.904-0.553,1.517-0.553
	c0.658,0,1.172,0.181,1.542,0.545c0.374,0.362,0.562,0.846,0.562,1.451c0,0.435-0.111,0.855-0.335,1.261
	c-0.219,0.399-0.481,0.76-0.791,1.079c-0.301,0.315-0.688,0.681-1.159,1.098l-0.409,0.362h2.876v0.862h-4.409v-0.752
	L199.409,220.412z M204.057,216.837c0.037-0.563,0.252-1,0.644-1.314c0.399-0.314,0.908-0.473,1.524-0.473
	c0.423,0,0.79,0.076,1.098,0.228c0.31,0.151,0.542,0.356,0.699,0.616c0.156,0.26,0.235,0.554,0.235,0.88
	c0,0.375-0.1,0.695-0.299,0.963c-0.2,0.265-0.439,0.443-0.717,0.535v0.036c0.355,0.107,0.636,0.308,0.835,0.598
	c0.199,0.284,0.298,0.65,0.298,1.099c0,0.356-0.082,0.674-0.244,0.952c-0.164,0.277-0.406,0.499-0.726,0.662
	c-0.32,0.157-0.705,0.235-1.152,0.235c-0.653,0-1.191-0.166-1.615-0.498c-0.416-0.339-0.641-0.821-0.671-1.452h0.998
	c0.024,0.321,0.148,0.584,0.371,0.79c0.225,0.199,0.528,0.298,0.907,0.298c0.369,0,0.653-0.099,0.854-0.298
	c0.2-0.206,0.299-0.469,0.299-0.79c0-0.424-0.135-0.722-0.407-0.897c-0.267-0.182-0.678-0.272-1.234-0.272h-0.236v-0.854h0.245
	c0.49-0.006,0.862-0.087,1.116-0.244c0.261-0.157,0.39-0.405,0.39-0.744c0-0.29-0.093-0.52-0.28-0.689
	c-0.188-0.176-0.454-0.263-0.798-0.263c-0.339,0-0.604,0.087-0.791,0.263c-0.186,0.17-0.299,0.381-0.335,0.635H204.057z"/>
<path fill="none" stroke="#00666A" d="M79.612,240.468h94.499c1.462,0,2.646,1.185,2.646,2.646v19.278
	c0,1.462-1.185,2.646-2.646,2.646H79.612c-1.461,0-2.646-1.184-2.646-2.646v-19.278C76.966,241.653,78.151,240.468,79.612,240.468z"
	/>
</svg>
