<svg width="24" height="29" viewBox="0 0 24 29" fill="none" xmlns="http://www.w3.org/2000/svg">
<path fill-rule="evenodd" clip-rule="evenodd" d="M7.60919 0.0325623C11.3951 0.0325623 15.1811 0.0325623 18.9673 0.0325623C19.9405 0.330947 20.252 1.0147 20.2491 1.99557C20.229 9.06276 20.2386 16.13 20.2379 23.1972C20.2379 24.328 19.6223 24.944 18.4946 24.944C13.0818 24.9446 7.66964 24.9446 2.25714 24.944C1.1167 24.944 0.501058 24.3267 0.500739 23.1777C0.499459 17.9388 0.500099 12.7 0.500739 7.46147C0.500739 7.36424 0.508734 7.26702 0.514171 7.14453C0.658406 7.14453 0.775777 7.14453 0.892828 7.14453C2.32814 7.14677 3.76346 7.15285 5.19877 7.14773C5.45238 7.14677 5.71463 7.1311 5.95736 7.06586C6.99163 6.78762 7.60471 5.97626 7.60919 4.8873C7.61527 3.26874 7.60983 1.65081 7.60919 0.0325623ZM10.689 14.4615C9.025 14.4615 7.36102 14.4615 5.69736 14.4615C5.54193 14.4615 5.38618 14.4561 5.23107 14.465C4.91702 14.4826 4.63015 14.718 4.55051 15.0141C4.46992 15.3144 4.59657 15.6534 4.89559 15.806C5.05805 15.8885 5.26018 15.9269 5.44439 15.9275C8.93673 15.9342 12.4291 15.9326 15.9214 15.9317C16.0305 15.9317 16.1418 15.9285 16.2483 15.9067C16.618 15.8316 16.8597 15.5044 16.8335 15.1286C16.806 14.741 16.4808 14.4634 16.0369 14.4628C14.2546 14.4602 12.4716 14.4615 10.689 14.4615ZM10.6602 11.9481C11.8029 11.9481 12.9456 11.9484 14.0883 11.9481C14.7647 11.9481 15.4411 11.9497 16.1178 11.9452C16.4475 11.943 16.6707 11.761 16.791 11.4703C16.902 11.2033 16.839 10.9468 16.6474 10.7315C16.4542 10.5147 16.1961 10.4837 15.9214 10.484C12.4297 10.4866 8.93769 10.4856 5.44567 10.4862C5.34556 10.4862 5.24387 10.4885 5.14536 10.5042C4.61895 10.5873 4.36342 11.1767 4.66085 11.6171C4.83003 11.8678 5.07213 11.9513 5.36763 11.9503C7.13203 11.9455 8.89611 11.9481 10.6602 11.9481ZM7.96834 19.6728C8.85454 19.6728 9.74042 19.678 10.6266 19.6709C11.1463 19.6671 11.4837 19.2782 11.4009 18.8001C11.3376 18.4355 11.0184 18.2017 10.5697 18.2011C8.84334 18.1998 7.11668 18.1998 5.39034 18.2011C4.88152 18.2014 4.539 18.494 4.5326 18.9245C4.52621 19.3709 4.86905 19.6712 5.39226 19.6725C6.25095 19.6744 7.10965 19.6728 7.96834 19.6728Z" fill="white"/>
<path fill-rule="evenodd" clip-rule="evenodd" d="M5.0302 28.1254C4.85558 28.0497 4.67009 27.9927 4.5089 27.8945C4.05829 27.6214 3.79924 27.2162 3.76854 26.685C3.75287 26.4125 3.76566 26.1381 3.76566 25.8238C3.88751 25.8238 4.00264 25.8238 4.11745 25.8238C8.92646 25.8238 13.7355 25.8234 18.5445 25.8241C19.5976 25.8241 20.3908 25.3856 20.8791 24.438C21.0857 24.0376 21.1228 23.603 21.1225 23.1594C21.1206 16.6407 21.1212 10.122 21.1212 3.60357C21.1212 3.4862 21.1212 3.36914 21.1212 3.18333C21.5696 3.22043 22.0048 3.20188 22.41 3.3023C23.0976 3.47276 23.4894 4.0852 23.4955 4.89241C23.5025 5.90717 23.4974 6.92225 23.4974 7.93701C23.4974 14.0716 23.4958 20.2066 23.5 26.3406C23.5003 26.9293 23.3682 27.4538 22.8645 27.8076C22.6675 27.946 22.426 28.0212 22.2047 28.1254C16.4798 28.1254 10.7551 28.1254 5.0302 28.1254Z" fill="white"/>
<path fill-rule="evenodd" clip-rule="evenodd" d="M6.7307 2.85904C6.7307 3.52617 6.73326 4.1933 6.73006 4.86042C6.72558 5.71048 6.20365 6.25864 5.35231 6.26727C3.99983 6.28103 2.64734 6.27143 1.29454 6.27079C0.969291 6.27079 0.698091 6.17197 0.571765 5.84064C0.449597 5.52115 0.584557 5.2781 0.806826 5.05615C2.3787 3.48715 3.94898 1.9172 5.51733 0.345002C5.7492 0.112499 6.01208 -0.0157454 6.32933 0.118576C6.64531 0.252896 6.73933 0.525056 6.73422 0.857341C6.7227 1.52479 6.7307 2.19191 6.7307 2.85904Z" fill="white"/>
</svg>
