<?xml version="1.0" encoding="utf-8"?>
<!-- Generator: Adobe Illustrator 16.0.0, SVG Export Plug-In . SVG Version: 6.00 Build 0)  -->
<!DOCTYPE svg PUBLIC "-//W3C//DTD SVG 1.1//EN" "http://www.w3.org/Graphics/SVG/1.1/DTD/svg11.dtd">
<svg version="1.1" id="Layer_1" xmlns="http://www.w3.org/2000/svg" xmlns:xlink="http://www.w3.org/1999/xlink" x="0px" y="0px"
	 width="30px" height="20px" viewBox="0 0 30 20" enable-background="new 0 0 30 20" xml:space="preserve">
<path fill-rule="evenodd" clip-rule="evenodd" fill="#3F3F3F" d="M1.365,12.224c0.09-0.346,0.144-0.706,0.276-1.035
	c0.504-1.26,1.433-2.042,2.752-2.354C4.545,8.799,4.592,8.74,4.612,8.59c0.361-2.782,1.822-4.756,4.415-5.827
	c1.875-0.774,3.776-0.693,5.604,0.18c1.855,0.886,3.103,2.333,3.711,4.307c0.072,0.236,0.18,0.354,0.427,0.441
	c1.748,0.613,2.766,1.851,3.063,3.68c0.01,0.059,0.027,0.115,0.04,0.173c0,0.28,0,0.561,0,0.841
	c-0.081,0.335-0.134,0.68-0.246,1.003c-0.632,1.814-2.229,2.985-4.149,3.036c-0.841,0.022-1.682,0.005-2.522,0.006
	c-0.032,0-0.064-0.007-0.108-0.011c0-0.418,0-0.829,0-1.262c0.07-0.003,0.141-0.009,0.211-0.009c0.761,0,1.521,0.003,2.282-0.001
	c1.862-0.009,3.275-1.449,3.247-3.309c-0.021-1.438-1.12-2.757-2.543-3.018c-0.448-0.082-0.688-0.292-0.807-0.748
	c-0.617-2.382-2.147-3.878-4.553-4.352c-2.034-0.401-3.813,0.222-5.256,1.722c-0.89,0.925-1.375,2.05-1.527,3.319
	c-0.024,0.205-0.021,0.414-0.039,0.62c-0.033,0.404-0.267,0.627-0.675,0.639c-0.661,0.021-1.244,0.242-1.717,0.704
	c-0.75,0.733-0.992,1.628-0.682,2.622s1.02,1.585,2.053,1.764c0.163,0.028,0.332,0.034,0.498,0.035
	c0.948,0.003,1.896,0.002,2.843,0.002c0.072,0,0.145,0,0.231,0c0,0.43,0,0.845,0,1.281c-0.072,0-0.137,0-0.203,0
	c-0.967,0-1.935,0.002-2.903,0c-1.969-0.004-3.488-1.249-3.88-3.175c-0.021-0.104-0.041-0.206-0.061-0.31
	C1.365,12.704,1.365,12.464,1.365,12.224z"/>
<path fill-rule="evenodd" clip-rule="evenodd" fill="#3F3F3F" d="M14.616,12.751c-0.298,0.296-0.589,0.587-0.887,0.885
	c-0.452-0.455-0.925-0.929-1.397-1.403c-0.018,0.009-0.035,0.019-0.052,0.027c0,2.022,0,4.044,0,6.078c-0.435,0-0.846,0-1.282,0
	c0-2.021,0-4.044,0-6.093c-0.492,0.502-0.96,0.979-1.418,1.445c-0.343-0.343-0.639-0.638-0.954-0.953
	c0.183-0.176,0.381-0.363,0.573-0.555c0.634-0.632,1.265-1.265,1.897-1.896c0.357-0.356,0.704-0.357,1.06-0.004
	c0.789,0.787,1.576,1.576,2.363,2.363C14.558,12.683,14.591,12.724,14.616,12.751z"/>
</svg>
