<svg width="14" height="10" viewBox="0 0 14 10" fill="none" xmlns="http://www.w3.org/2000/svg">
<path d="M13 3.78571C13.2761 3.78571 13.5 3.56186 13.5 3.28571C13.5 3.00957 13.2761 2.78571 13 2.78571V3.78571ZM13 7.21429C13.2761 7.21429 13.5 6.99043 13.5 6.71429C13.5 6.43814 13.2761 6.21429 13 6.21429V7.21429ZM8.76316 5C8.76316 4.72386 8.5393 4.5 8.26316 4.5C7.98702 4.5 7.76316 4.72386 7.76316 5H8.76316ZM7.76316 5.00571C7.76316 5.28185 7.98702 5.50571 8.26316 5.50571C8.5393 5.50571 8.76316 5.28185 8.76316 5.00571H7.76316ZM2.33333 1.5H11.6667V0.5H2.33333V1.5ZM11.6667 8.5H2.33333V9.5H11.6667V8.5ZM1.5 7.66667V2.33333H0.5V7.66667H1.5ZM2.33333 8.5C1.8731 8.5 1.5 8.1269 1.5 7.66667H0.5C0.5 8.67919 1.32081 9.5 2.33333 9.5V8.5ZM12.5 7.66667C12.5 8.1269 12.1269 8.5 11.6667 8.5V9.5C12.6792 9.5 13.5 8.67919 13.5 7.66667H12.5ZM11.6667 1.5C12.1269 1.5 12.5 1.8731 12.5 2.33333H13.5C13.5 1.32081 12.6792 0.5 11.6667 0.5V1.5ZM2.33333 0.5C1.32081 0.5 0.5 1.32081 0.5 2.33333H1.5C1.5 1.8731 1.8731 1.5 2.33333 1.5V0.5ZM8.26316 3.78571H13V2.78571H8.26316V3.78571ZM13 6.21429H8.26316V7.21429H13V6.21429ZM8.26316 6.21429C7.44461 6.21429 6.86842 5.62473 6.86842 5H5.86842C5.86842 6.26882 6.98884 7.21429 8.26316 7.21429V6.21429ZM8.26316 2.78571C6.98884 2.78571 5.86842 3.73118 5.86842 5H6.86842C6.86842 4.37527 7.44461 3.78571 8.26316 3.78571V2.78571ZM7.76316 5V5.00571H8.76316V5H7.76316ZM12.5 2.33333V7.66667H13.5V2.33333H12.5Z" fill="white"/>
</svg>
