<?xml version="1.0" encoding="utf-8"?>
<!-- Generator: Adobe Illustrator 16.0.0, SVG Export Plug-In . SVG Version: 6.00 Build 0)  -->
<!DOCTYPE svg PUBLIC "-//W3C//DTD SVG 1.1//EN" "http://www.w3.org/Graphics/SVG/1.1/DTD/svg11.dtd">
<svg version="1.1" id="Layer_1" xmlns="http://www.w3.org/2000/svg" xmlns:xlink="http://www.w3.org/1999/xlink" x="0px" y="0px"
	 width="16px" height="13px" viewBox="0 0 16 13" enable-background="new 0 0 16 13" xml:space="preserve">
<path fill="#FFFFFF" d="M13,3.786c0.275,0,0.5-0.224,0.5-0.5c0-0.276-0.225-0.5-0.5-0.5V3.786z M13,7.215c0.275,0,0.5-0.225,0.5-0.5
	c0-0.276-0.225-0.5-0.5-0.5V7.215z M8.764,5c0-0.276-0.225-0.5-0.5-0.5c-0.276,0-0.5,0.224-0.5,0.5H8.764z M7.763,5.006
	c0,0.276,0.224,0.5,0.5,0.5c0.276,0,0.5-0.224,0.5-0.5H7.763z M2.333,1.5h9.333v-1H2.333V1.5z M11.666,8.5H2.333v1h9.333V8.5z
	 M1.5,7.666V2.333h-1v5.333H1.5z M2.333,8.5C1.873,8.5,1.5,8.127,1.5,7.666h-1C0.5,8.68,1.321,9.5,2.333,9.5V8.5z M12.5,7.666
	c0,0.461-0.373,0.834-0.834,0.834v1c1.014,0,1.834-0.82,1.834-1.834H12.5z M11.666,1.5c0.461,0,0.834,0.373,0.834,0.833h1
	c0-1.013-0.82-1.833-1.834-1.833V1.5z M2.333,0.5C1.321,0.5,0.5,1.321,0.5,2.333h1C1.5,1.873,1.873,1.5,2.333,1.5V0.5z M8.263,3.786
	H13v-1H8.263V3.786z M13,6.214H8.263v1H13V6.214z M8.263,6.214C7.445,6.214,6.869,5.625,6.869,5h-1c0,1.269,1.12,2.215,2.395,2.215
	V6.214z M8.263,2.786C6.989,2.786,5.869,3.731,5.869,5h1c0-0.625,0.576-1.214,1.395-1.214V2.786z M7.763,5v0.006h1V5H7.763z
	 M12.5,2.333v5.333h1V2.333H12.5z"/>
<circle fill="#D42929" cx="12" cy="9" r="4"/>
<circle fill="#FFFFFF" cx="12" cy="9" r="2.912"/>
<path fill="#D42929" d="M13.58,8.055c0.137-0.137,0.137-0.358,0-0.495s-0.357-0.137-0.494,0L13.58,8.055z M10.42,10.227
	c-0.137,0.137-0.137,0.358,0,0.495s0.357,0.137,0.494,0L10.42,10.227z M10.914,7.56c-0.137-0.137-0.357-0.137-0.494,0
	s-0.137,0.358,0,0.495L10.914,7.56z M13.086,10.722c0.137,0.137,0.357,0.137,0.494,0s0.137-0.358,0-0.495L13.086,10.722z
	 M13.086,7.56l-2.666,2.667l0.494,0.495l2.666-2.667L13.086,7.56z M10.42,8.055l2.666,2.667l0.494-0.495L10.914,7.56L10.42,8.055z"
	/>
</svg>
